<?xml version="1.0" standalone="no"?>
<!DOCTYPE svg PUBLIC "-//W3C//DTD SVG 20010904//EN"
 "http://www.w3.org/TR/2001/REC-SVG-20010904/DTD/svg10.dtd">
<svg version="1.0" xmlns="http://www.w3.org/2000/svg"
 width="960.000000pt" height="470.000000pt" viewBox="0 0 960.000000 470.000000"
 preserveAspectRatio="xMidYMid meet">

<g transform="translate(0.000000,470.000000) scale(0.100000,-0.100000)"
fill="#000000" stroke="none">
<path d="M0 2771 c0 -1702 2 -1931 15 -1945 8 -8 15 -18 15 -23 1 -15 60 -73
75 -73 8 0 15 -8 15 -17 1 -22 23 -53 39 -53 6 0 14 -13 17 -30 4 -16 10 -30
15 -30 16 0 68 -62 67 -79 -3 -37 4 -50 31 -59 16 -6 32 -20 36 -31 3 -12 13
-21 21 -21 11 0 12 -4 2 -19 -12 -19 -13 -19 -50 2 -21 12 -38 28 -38 35 0 6
-9 12 -21 12 -11 0 -17 -4 -14 -10 6 -9 -8 -14 -29 -11 -20 4 -45 -11 -39 -25
3 -9 -2 -14 -15 -14 -15 0 -19 5 -15 20 4 15 0 20 -15 20 -15 0 -22 11 -32 48
-15 56 -17 57 -52 66 l-28 6 0 -119 c0 -86 3 -121 12 -124 10 -4 10 -6 1 -6
-8 -1 -13 -14 -13 -32 0 -28 2 -30 16 -18 13 10 17 10 25 -2 12 -19 11 -36 -1
-44 -6 -3 -10 -22 -10 -41 0 -22 -6 -37 -15 -40 -11 -5 -15 -21 -15 -60 l0
-54 133 0 c134 0 172 8 222 50 12 10 15 9 15 -3 0 -8 6 -17 13 -20 6 -2 8 -8
4 -13 -4 -5 -12 -2 -17 6 -6 10 -12 11 -22 3 -7 -6 -22 -13 -33 -16 -11 -2
258 -5 598 -6 545 -1 617 1 617 14 0 8 9 15 20 15 11 0 20 -7 20 -15 0 -10 10
-15 29 -15 17 0 28 5 27 13 0 6 4 12 9 12 6 0 9 -6 9 -12 -1 -10 165 -13 802
-13 l804 0 1 53 c1 28 1 56 0 60 -1 5 8 11 19 14 11 3 20 10 20 17 -1 15 -26
47 -32 41 -3 -3 -5 13 -5 35 0 38 2 41 26 39 47 -4 81 1 81 10 0 6 -12 9 -27
8 -19 -1 -28 3 -28 13 -1 23 -15 41 -27 34 -6 -4 -5 -10 3 -16 11 -7 9 -8 -6
-6 -11 2 -21 12 -23 24 -3 24 28 35 74 26 22 -4 24 -8 19 -36 -5 -28 -5 -30 9
-13 14 18 15 18 35 -2 13 -13 16 -21 8 -25 -7 -2 -5 -5 5 -5 9 -1 19 5 21 12
4 9 6 9 6 0 1 -7 6 -13 12 -13 14 0 0 43 -18 53 -8 5 -12 16 -9 25 7 20 1 29
-42 64 -31 26 -31 28 -13 38 29 15 46 12 65 -9 21 -23 65 -36 79 -22 7 7 1 12
-16 16 -15 4 -29 15 -32 25 -4 12 -17 20 -38 22 -27 3 -33 8 -35 32 -5 44 12
50 39 14 13 -18 31 -33 39 -33 9 0 14 -7 12 -19 -2 -11 1 -16 10 -14 7 3 12
12 10 22 -2 9 2 16 9 16 6 0 17 8 24 17 11 15 13 15 24 -5 9 -18 17 -21 38
-16 18 5 24 4 19 -5 -4 -6 -16 -11 -27 -11 -11 0 -19 -7 -19 -16 0 -9 -9 -18
-20 -21 -11 -3 -20 -9 -20 -14 0 -10 8 -14 52 -23 15 -3 34 -13 43 -23 15 -15
15 -17 1 -25 -22 -12 -20 -31 4 -46 11 -7 17 -18 14 -27 -4 -8 -1 -22 6 -30 9
-11 10 -18 1 -28 -6 -8 -8 -17 -4 -21 4 -4 2 -10 -4 -14 -6 -4 -13 -18 -14
-32 -3 -20 2 -27 28 -35 25 -8 30 -14 22 -27 -7 -12 -5 -19 7 -26 21 -11 18
-24 -9 -40 -14 -8 -15 -11 -4 -8 11 3 17 0 17 -9 0 -13 29 -15 185 -15 102 0
185 2 185 4 0 3 -15 35 -34 73 -51 101 -74 165 -102 293 -42 189 -43 390 -3
525 4 17 11 46 13 65 7 54 11 67 23 81 5 8 13 28 17 44 4 17 18 51 31 76 24
47 23 73 -1 41 -12 -15 -15 -15 -23 -2 -11 16 9 33 39 35 8 0 16 5 17 10 1 6
-4 9 -12 7 -7 -1 -16 2 -20 8 -4 6 -3 10 2 9 28 -5 55 3 60 19 4 9 15 28 25
41 l18 24 0 -49 c0 -70 7 -76 76 -72 l59 3 3 113 c3 107 2 112 -18 112 -16 0
-20 -6 -20 -35 0 -31 -3 -35 -25 -35 -22 0 -25 4 -25 35 0 27 -4 35 -18 35
-10 0 -23 5 -29 11 -9 9 -11 7 -7 -8 3 -12 1 -24 -5 -27 -6 -4 -11 -13 -11
-19 0 -7 4 -6 10 3 8 12 9 10 7 -7 -9 -62 -33 -18 -32 57 0 28 5 45 13 46 6 1
19 2 27 3 13 1 14 5 5 21 -9 17 -8 20 10 20 12 0 20 7 20 17 0 13 3 14 12 5
16 -16 45 -15 51 1 2 7 8 8 13 3 5 -5 4 -11 -3 -13 -17 -6 -17 -30 0 -36 9 -3
9 -7 -2 -20 -22 -27 -3 -20 27 11 43 41 104 95 128 112 11 8 40 28 62 44 23
16 42 31 42 35 0 3 -31 18 -68 33 -80 33 -186 102 -271 178 -34 30 -70 58 -79
62 -10 4 -12 7 -4 7 7 1 11 5 8 9 -3 5 -19 7 -36 4 -22 -3 -30 0 -30 11 0 9 4
19 10 22 5 3 10 11 10 16 0 6 -4 7 -10 4 -5 -3 -8 0 -5 7 3 7 -4 28 -15 46
-17 27 -23 31 -39 22 -18 -9 -19 -8 -11 20 6 22 4 39 -10 67 -11 21 -19 34
-20 28 0 -5 -13 -11 -30 -12 -21 -2 -28 2 -24 12 3 8 16 15 28 17 l23 3 -19
75 c-10 41 -23 111 -29 155 -5 44 -12 81 -14 83 -2 2 -16 -3 -32 -11 -24 -13
-25 -16 -10 -22 9 -4 17 -11 17 -17 0 -5 -5 -6 -10 -3 -6 3 -13 -1 -16 -9 -3
-9 -10 -14 -14 -11 -4 3 -10 -4 -13 -15 -3 -12 -14 -20 -26 -20 -24 0 -25 3
-12 47 8 26 6 32 -9 36 -25 7 -39 -53 -39 -171 0 -51 -3 -97 -6 -102 -3 -6 1
-10 9 -10 24 0 21 -46 -4 -53 -11 -3 -23 -13 -27 -24 -4 -10 -15 -27 -25 -37
-10 -11 -18 -24 -18 -28 0 -5 -5 -6 -12 -2 -7 4 -8 3 -4 -5 4 -6 3 -17 -2 -24
-5 -7 -12 -24 -16 -39 -4 -17 -14 -28 -28 -30 -12 -2 -23 -9 -26 -17 -3 -8 0
-11 7 -7 6 4 11 3 11 -2 0 -13 -25 -22 -62 -22 -22 0 -29 -4 -25 -14 4 -10 1
-13 -7 -10 -20 8 -30 -14 -14 -33 11 -14 10 -15 -10 -9 -20 7 -22 5 -17 -17 6
-21 3 -25 -19 -25 -14 1 -23 4 -20 9 3 5 1 9 -5 9 -14 0 -53 -58 -48 -73 4
-13 -21 -36 -40 -37 -7 0 -13 9 -13 19 0 14 6 19 19 16 15 -3 18 0 14 13 -4
10 -8 12 -11 4 -2 -7 -8 -10 -13 -6 -6 3 -9 174 -9 420 1 277 -3 421 -10 434
-7 14 -7 20 0 20 19 0 10 53 -12 78 -13 14 -18 22 -11 18 7 -4 17 2 22 13 17
31 13 44 -10 38 -17 -5 -20 -1 -17 21 4 30 24 41 31 15 5 -18 12 387 8 442 -2
29 -2 29 13 10 14 -19 15 -19 12 10 -2 17 -7 28 -12 25 -5 -3 -11 206 -14 490
l-5 494 -40 8 c-21 5 -42 13 -45 19 -5 6 -15 6 -32 0 -27 -10 -48 1 -48 26 0
7 -10 13 -22 13 -19 0 -20 2 -8 10 8 5 11 10 6 10 -5 0 -3 6 3 14 16 19 -14
45 -31 28 -9 -9 -9 -12 2 -12 10 0 11 -3 4 -10 -8 -8 -19 -7 -37 1 -23 11 -32
26 -29 51 1 3 -6 12 -14 19 -14 11 -15 9 -13 -24 4 -46 -13 -53 -26 -10 -6 21
-20 38 -40 47 -16 8 -36 24 -43 35 -14 24 -32 28 -32 7 0 -15 -34 -28 -55 -20
-7 3 -11 14 -7 26 5 19 2 20 -30 14 -30 -5 -36 -3 -41 13 -3 13 -17 22 -43 27
-22 4 -42 12 -46 18 -5 8 -11 7 -20 -2 -17 -17 -26 -15 -24 6 1 16 -15 17
-187 20 l-188 2 5 -102 c3 -57 7 -132 9 -168 1 -46 7 -70 20 -82 11 -12 17
-33 17 -63 0 -41 15 -132 27 -165 3 -8 7 -33 9 -54 2 -22 10 -46 16 -53 9 -11
9 -16 -1 -22 -9 -6 -8 -11 4 -21 8 -7 15 -25 15 -41 0 -15 5 -41 11 -56 6 -15
15 -37 20 -48 7 -19 10 -33 26 -123 3 -18 0 -38 -6 -46 -7 -8 -8 -17 -3 -20 5
-3 12 -28 15 -56 3 -28 15 -64 27 -79 11 -16 20 -45 20 -64 0 -20 5 -48 10
-63 17 -44 29 -188 16 -196 -6 -4 -14 1 -18 12 -10 26 -28 26 -28 0 0 -11 -4
-20 -10 -20 -5 0 -10 18 -10 39 0 22 -4 43 -10 46 -5 3 -10 15 -10 25 0 23
-13 32 -33 24 -9 -3 -13 -13 -10 -25 4 -14 0 -19 -16 -19 -16 0 -21 6 -21 26
0 34 -17 64 -37 64 -13 0 -13 3 -3 15 16 19 30 19 30 1 0 -19 19 -31 31 -19 6
6 4 15 -6 23 -20 16 -19 34 1 26 11 -4 14 -1 12 12 -4 19 -68 31 -68 13 0 -13
-32 3 -63 31 -14 12 -18 24 -13 41 4 17 0 29 -13 41 -16 15 -20 15 -31 1 -14
-17 -25 -13 -41 17 -10 19 -9 20 20 13 26 -5 30 -4 25 9 -7 19 7 21 24 4 9 -9
12 -8 12 4 0 20 -42 36 -48 19 -2 -6 -8 -8 -13 -5 -6 3 0 15 13 26 l23 20 -22
15 c-13 9 -23 23 -23 32 0 13 2 14 9 2 24 -38 76 -7 65 38 -5 23 -3 23 35 17
23 -3 41 -3 41 2 0 25 -55 61 -62 41 -6 -17 -38 2 -38 23 0 10 -4 16 -10 13
-5 -3 -10 -15 -10 -26 0 -19 -11 -25 -23 -12 -4 3 -2 12 5 20 9 11 6 17 -10
29 -12 8 -22 23 -22 32 0 12 3 13 12 4 22 -22 31 -12 26 32 -6 48 -44 104 -95
137 l-28 19 31 0 c33 0 80 39 57 47 -27 10 -11 23 25 22 40 -1 92 15 92 29 0
4 -9 18 -20 30 -11 12 -20 27 -20 34 -1 17 -41 63 -62 71 -29 10 -28 -5 2 -42
17 -19 30 -45 29 -56 0 -18 -1 -18 -10 4 -6 15 -15 21 -24 17 -9 -3 -15 0 -15
9 0 9 -6 12 -17 8 -12 -5 -15 -2 -10 9 3 10 0 19 -9 22 -8 3 -14 13 -13 23 0
11 3 13 6 6 10 -26 19 -12 21 34 1 27 7 50 12 51 7 3 7 9 -1 18 -9 11 -9 18 1
29 10 13 9 15 -9 15 -13 0 -21 -7 -22 -17 -1 -10 -5 2 -10 26 -10 51 -17 61
-29 41 -7 -12 -10 -11 -16 5 -15 43 -54 71 -54 39 0 -8 -4 -13 -9 -10 -5 3 -7
15 -4 27 4 14 11 19 25 16 14 -4 22 2 29 20 7 19 15 24 29 20 11 -3 23 -1 26
4 3 5 1 9 -4 9 -5 0 -12 9 -15 20 -3 13 -14 20 -29 20 -35 0 -42 12 -16 27 19
10 -159 12 -949 13 l-973 0 0 -1929z m1920 1845 c0 -9 -7 -12 -20 -9 -11 3
-20 9 -20 14 0 5 9 9 20 9 11 0 20 -6 20 -14z m852 -108 c-7 -7 -12 -8 -12 -2
0 6 3 14 7 17 3 4 9 5 12 2 2 -3 -1 -11 -7 -17z m-857 -68 c3 -6 -1 -7 -9 -4
-18 7 -21 14 -7 14 6 0 13 -4 16 -10z m73 -88 c2 -7 -2 -10 -12 -6 -9 3 -16
11 -16 16 0 13 23 5 28 -10z m1057 8 c3 -5 1 -10 -4 -10 -6 0 -11 5 -11 10 0
6 2 10 4 10 3 0 8 -4 11 -10z m-1015 -395 c0 -8 -4 -15 -10 -15 -5 0 -10 7
-10 15 0 8 5 15 10 15 6 0 10 -7 10 -15z m24 -31 c23 -9 20 -26 -4 -19 -14 5
-20 2 -20 -9 0 -9 -4 -16 -10 -16 -14 0 -12 37 3 43 6 3 13 6 14 6 1 1 8 -2
17 -5z m354 -812 c2 -18 -1 -32 -5 -32 -5 0 -9 8 -9 18 -1 9 -5 25 -9 36 -6
14 -5 18 6 14 8 -2 15 -19 17 -36z m820 -374 c-2 -6 -10 -14 -16 -16 -7 -2
-10 2 -6 12 7 18 28 22 22 4z m-83 -88 c3 -5 -1 -10 -10 -10 -9 0 -13 5 -10
10 3 6 8 10 10 10 2 0 7 -4 10 -10z m85 -18 c0 -15 -2 -15 -10 -2 -13 20 -13
33 0 25 6 -3 10 -14 10 -23z m-90 -42 c0 -5 -9 -12 -21 -15 -12 -4 -18 -12
-15 -21 3 -8 -1 -14 -10 -14 -12 0 -13 4 -3 23 18 34 30 47 40 41 5 -3 9 -9 9
-14z m760 -391 c0 -14 -17 -10 -23 5 -4 10 -1 13 9 9 7 -3 14 -9 14 -14z
m-160 -49 c0 -5 -4 -10 -10 -10 -5 0 -10 5 -10 10 0 6 5 10 10 10 6 0 10 -4
10 -10z m-90 -60 c0 -5 -7 -10 -15 -10 -8 0 -15 5 -15 10 0 6 7 10 15 10 8 0
15 -4 15 -10z m537 -286 c-3 -3 -12 -4 -19 -1 -8 3 -5 6 6 6 11 1 17 -2 13 -5z
m-3475 -78 c6 -8 8 -8 8 0 0 7 15 9 43 6 23 -2 59 -5 80 -6 20 0 37 -4 37 -8
0 -4 21 -10 48 -14 26 -3 54 -13 62 -20 9 -7 47 -28 85 -45 39 -18 64 -34 58
-36 -17 -6 -16 -18 3 -38 12 -12 19 -13 30 -4 10 8 14 8 14 0 0 -6 8 -11 18
-11 22 -1 62 -34 62 -53 0 -8 6 -17 14 -20 8 -3 17 -20 21 -37 4 -17 15 -36
25 -42 10 -7 15 -19 12 -30 -2 -10 1 -18 7 -18 6 0 11 -5 11 -11 0 -6 -7 -9
-15 -5 -12 4 -13 2 -2 -17 6 -12 18 -26 25 -30 9 -6 10 -12 3 -21 -7 -8 -6
-21 4 -40 20 -37 19 -54 -2 -52 -13 1 -19 -8 -21 -31 -2 -18 -7 -33 -13 -33
-5 0 -9 -7 -9 -15 0 -8 5 -15 12 -15 6 0 9 -3 6 -6 -3 -3 -15 0 -27 7 -19 12
-19 15 -4 31 9 10 13 21 10 25 -4 3 -7 1 -7 -6 0 -7 -9 -9 -26 -5 -24 6 -26 4
-24 -27 3 -59 2 -61 -21 -47 -13 9 -19 20 -16 36 2 12 -1 23 -7 23 -6 1 -18 2
-26 3 -10 1 -14 10 -13 30 1 17 -2 35 -8 42 -6 7 -8 22 -5 32 10 30 -22 51
-72 46 -40 -3 -42 -3 -42 25 0 36 -7 42 -36 31 -20 -8 -24 -6 -24 9 0 12 -10
20 -29 24 -23 5 -28 10 -24 26 3 11 11 22 19 25 17 7 7 36 -13 36 -9 0 -13 -8
-11 -22 3 -21 -1 -23 -37 -20 -25 2 -47 11 -57 23 -33 38 -90 71 -114 65 -14
-4 -29 0 -38 10 -21 20 -20 44 0 44 10 0 14 -6 10 -15 -6 -17 9 -20 20 -4 3 6
1 15 -6 19 -7 4 -10 12 -6 18 3 5 -12 21 -34 36 -36 24 -60 32 -60 22 0 -2 -3
-11 -6 -20 -5 -12 0 -16 20 -16 16 0 26 -6 26 -15 0 -18 -2 -18 -35 -3 -18 8
-29 8 -36 1 -8 -8 -4 -13 12 -18 30 -10 41 -26 27 -42 -8 -10 -14 -10 -31 2
-12 8 -30 15 -40 15 -11 0 -24 13 -33 33 l-15 32 5 -33 c3 -18 15 -42 26 -54
11 -12 20 -28 20 -35 0 -7 5 -13 10 -13 6 0 10 5 10 10 0 6 8 10 18 10 15 -1
15 -2 -3 -16 -11 -8 -30 -12 -42 -9 -25 6 -26 3 -17 -43 4 -21 13 -32 28 -34
11 -2 22 -12 25 -23 3 -19 3 -19 -17 -2 -11 10 -25 17 -32 15 -7 -2 -16 8 -20
22 -3 14 -10 25 -15 26 -21 2 -45 17 -45 27 0 7 4 7 12 -1 20 -20 31 -14 24
14 -4 14 -2 31 3 38 7 8 4 22 -9 43 -15 25 -23 30 -44 26 -14 -3 -26 -9 -26
-14 0 -5 -4 -9 -10 -9 -5 0 -7 7 -4 15 4 9 0 15 -10 15 -9 0 -16 -6 -16 -14 0
-7 -8 -16 -17 -20 -10 -3 -25 -9 -33 -13 -13 -5 -13 -4 -2 10 22 26 6 58 -26
55 -21 -2 -27 1 -27 17 0 29 32 31 55 3 14 -17 21 -20 30 -12 9 9 8 19 -4 42
-15 28 -15 31 2 36 9 3 19 5 22 3 3 -1 18 6 32 15 15 10 34 15 42 12 9 -3 38
-1 64 6 27 6 63 12 80 12 30 1 43 13 22 20 -5 2 14 3 43 4 28 0 55 -4 59 -10z
m2561 0 c3 -7 16 -12 29 -11 13 1 15 0 5 -2 -12 -3 -16 -10 -13 -20 3 -8 6
-19 6 -24 0 -5 6 -9 14 -9 23 0 26 -14 11 -44 -8 -16 -12 -32 -9 -37 3 -5 -6
-13 -20 -19 -21 -8 -24 -13 -17 -32 4 -13 5 -30 1 -38 -5 -8 -13 -26 -18 -40
-8 -19 -11 2 -11 93 -1 118 -1 118 22 112 21 -6 22 -6 2 10 -10 8 -21 29 -23
45 -3 30 11 42 21 16z m67 -46 c0 -5 -7 -10 -15 -10 -8 0 -15 5 -15 10 0 6 7
10 15 10 8 0 15 -4 15 -10z m-3040 -141 c0 -6 -4 -7 -10 -4 -5 3 -10 11 -10
16 0 6 5 7 10 4 6 -3 10 -11 10 -16z m147 -43 c-4 -9 -16 -16 -27 -16 -20 0
-20 1 -4 26 18 27 42 19 31 -10z m-67 -11 c0 -7 -6 -15 -13 -18 -10 -4 -14 4
-14 24 0 23 3 26 14 18 7 -6 13 -17 13 -24z m-185 -5 c3 -5 1 -10 -4 -10 -6 0
-11 5 -11 10 0 6 2 10 4 10 3 0 8 -4 11 -10z m526 -26 c7 -9 24 -20 37 -25 13
-5 20 -13 17 -19 -10 -17 -31 -11 -59 15 -15 14 -32 25 -39 25 -7 0 -6 4 3 10
20 13 25 13 41 -6z m3254 -2 c-3 -3 -11 0 -18 7 -9 10 -8 11 6 5 10 -3 15 -9
12 -12z m-3170 -22 c3 -5 1 -10 -4 -10 -6 0 -11 5 -11 10 0 6 2 10 4 10 3 0 8
-4 11 -10z m-455 -10 c0 -5 -3 -10 -7 -10 -5 0 -18 -3 -30 -6 -17 -5 -23 -2
-23 10 0 11 9 16 30 16 17 0 30 -4 30 -10z m-92 -33 c2 -15 -1 -27 -7 -27 -6
0 -11 3 -11 8 0 4 -3 18 -7 31 -4 18 -2 23 8 19 8 -2 15 -17 17 -31z m592 -16
c0 -16 -15 -14 -30 4 -17 20 -3 39 16 21 8 -8 14 -19 14 -25z m-472 2 c2 -9
-5 -12 -22 -11 -14 1 -26 8 -26 16 0 17 42 12 48 -5z m110 -15 c-2 -6 -10 -14
-16 -16 -7 -2 -10 2 -6 12 7 18 28 22 22 4z m3587 1 c11 -17 -1 -21 -15 -4 -8
9 -8 15 -2 15 6 0 14 -5 17 -11z m-3425 -19 c0 -5 -2 -10 -4 -10 -3 0 -8 5
-11 10 -3 6 -1 10 4 10 6 0 11 -4 11 -10z m-300 -33 c0 -5 8 -7 18 -5 24 4 72
-35 63 -51 -5 -8 -13 -6 -26 9 -10 11 -28 20 -40 20 -13 0 -30 11 -39 25 -21
32 -20 38 4 23 11 -7 20 -17 20 -21z m75 23 c3 -5 1 -10 -4 -10 -6 0 -11 5
-11 10 0 6 2 10 4 10 3 0 8 -4 11 -10z m3775 -30 c0 -25 -4 -30 -25 -30 -21 0
-25 5 -25 30 0 25 4 30 25 30 21 0 25 -5 25 -30z m-3716 -6 c5 -12 2 -15 -10
-10 -8 3 -18 6 -20 6 -3 0 -2 5 1 10 9 15 22 12 29 -6z m414 -2 c6 -18 -15
-14 -22 4 -4 10 -1 14 6 12 6 -2 14 -10 16 -16z m1071 -3 c29 -10 43 -29 21
-29 -5 0 -10 -9 -10 -21 0 -15 5 -19 22 -17 16 2 23 -3 28 -22 4 -16 14 -26
28 -28 32 -5 29 35 -4 71 -29 32 -25 46 9 29 35 -18 131 -54 147 -56 34 -3 53
-24 52 -56 -1 -42 44 -92 76 -83 13 3 22 13 22 24 0 24 27 15 35 -12 4 -10 16
-20 28 -20 17 -1 18 -2 5 -6 -22 -6 -23 -19 -3 -27 8 -3 15 -12 15 -20 0 -7
12 -17 27 -21 19 -4 23 -9 14 -14 -18 -11 -5 -49 16 -47 9 0 19 -10 23 -25 7
-26 7 -26 -18 -13 -14 7 -29 18 -33 26 -4 7 -10 10 -14 7 -3 -3 4 -17 15 -32
11 -14 20 -28 20 -31 0 -13 -31 -5 -50 14 -16 16 -24 18 -50 8 -24 -8 -34 -7
-43 2 -10 10 -7 12 10 7 21 -5 22 -3 11 16 -6 12 -10 24 -9 27 4 9 -30 12 -65
5 -38 -7 -45 -22 -12 -27 14 -2 22 -12 25 -28 2 -14 10 -30 18 -36 16 -12 21
-54 6 -54 -5 0 -12 11 -15 25 -5 21 -10 24 -26 15 -25 -14 -27 -13 -33 10 -3
12 -14 20 -26 20 -12 0 -24 7 -27 15 -4 10 -20 15 -44 15 -30 0 -39 -4 -43
-22 -6 -21 -7 -21 -27 -3 -26 23 -25 40 2 59 30 22 45 20 53 -5 10 -30 25 -10
18 24 -4 22 -11 27 -34 27 -20 0 -29 -5 -29 -16 0 -10 -7 -14 -22 -12 -17 2
-23 -2 -23 -17 0 -14 -8 -21 -25 -23 -69 -9 -101 -9 -107 1 -4 7 6 8 30 4 36
-6 58 5 37 18 -17 10 0 26 21 20 11 -4 19 -2 19 4 0 6 -9 11 -20 11 -11 0 -29
5 -40 12 -15 10 -22 9 -39 -6 -17 -15 -22 -16 -25 -5 -21 59 -27 69 -42 69 -8
0 -14 5 -12 12 6 18 28 21 28 4 0 -9 5 -16 10 -16 6 0 10 4 10 9 0 6 -4 13
-10 16 -13 8 -13 55 1 55 6 0 9 -5 7 -12 -2 -6 6 -22 19 -36 29 -32 53 -23 53
20 0 22 3 29 9 20 6 -11 13 -7 30 16 17 25 18 32 7 41 -14 12 -27 2 -39 -29
-4 -12 -7 -11 -12 5 -7 22 -57 55 -82 55 -14 0 -14 -2 0 -18 21 -23 21 -32 2
-32 -9 0 -34 -12 -56 -26 -32 -20 -44 -23 -55 -13 -11 9 -15 8 -20 -5 -8 -20
-34 -21 -34 -1 0 8 9 15 20 15 11 0 20 6 20 13 0 16 -53 39 -74 31 -9 -3 -16
-1 -16 4 0 6 -16 9 -35 7 l-35 -3 24 19 c24 19 71 26 79 12 2 -5 2 -2 0 6 -2
10 4 12 24 7 26 -6 27 -5 9 8 -18 14 -17 15 10 21 16 3 37 10 46 16 10 5 32 9
49 9 16 0 39 5 50 10 13 7 19 7 19 0 0 -5 9 -10 20 -10 22 0 27 15 8 23 -25
10 0 7 31 -4z m-1443 -61 c4 -6 2 -14 -4 -16 -7 -2 -12 -12 -12 -22 0 -10 -5
-22 -11 -25 -18 -11 -19 -1 -3 29 13 26 13 31 -3 49 -18 19 -17 20 4 8 12 -6
25 -16 29 -23z m238 23 c3 -5 -1 -11 -9 -15 -15 -6 -29 7 -18 18 9 9 21 8 27
-3z m-109 -16 c0 -5 -10 -11 -22 -13 -16 -2 -23 2 -23 13 0 11 7 15 23 13 12
-2 22 -7 22 -13z m489 -16 c-8 -13 -24 -1 -24 18 0 13 3 13 15 3 8 -7 12 -16
9 -21z m-55 7 c10 -12 8 -13 -8 -9 -12 3 -21 9 -21 14 0 14 16 11 29 -5z
m-292 -12 c-3 -3 -12 -4 -19 -1 -8 3 -5 6 6 6 11 1 17 -2 13 -5z m3153 -15 c0
-6 -4 -7 -10 -4 -5 3 -10 11 -10 16 0 6 5 7 10 4 6 -3 10 -11 10 -16z m-3490
1 c10 -6 11 -10 3 -10 -9 0 -11 -10 -6 -32 l6 -31 -25 19 c-21 15 -23 21 -11
32 7 8 11 18 8 23 -8 12 6 11 25 -1z m3450 -5 c0 -9 -6 -12 -15 -9 -8 4 -12
10 -9 15 8 14 24 10 24 -6z m-3560 -10 c0 -9 -6 -12 -15 -9 -8 4 -15 10 -15
15 0 5 7 9 15 9 8 0 15 -7 15 -15z m270 5 c0 -5 -9 -11 -20 -11 -11 -1 -25 -2
-32 -3 -6 -1 -13 5 -15 12 -3 8 7 12 31 12 20 0 36 -4 36 -10z m1700 -31 c0 6
5 11 11 11 16 0 6 -44 -11 -47 -24 -4 -36 9 -43 47 l-7 35 25 -28 c14 -15 25
-23 25 -18z m-1653 25 c-3 -3 -12 -4 -19 -1 -8 3 -5 6 6 6 11 1 17 -2 13 -5z
m43 -18 c0 -3 -4 -8 -10 -11 -5 -3 -10 -1 -10 4 0 6 5 11 10 11 6 0 10 -2 10
-4z m298 -21 c9 -19 19 -25 42 -25 16 0 30 -3 30 -7 0 -5 -19 -8 -42 -8 -32 0
-43 5 -49 20 -18 47 -1 64 19 20z m-697 -5 c31 -26 15 -26 -18 0 -14 11 -21
20 -15 20 5 0 20 -9 33 -20z m1299 10 c0 -5 -5 -10 -11 -10 -5 0 -7 5 -4 10 3
6 8 10 11 10 2 0 4 -4 4 -10z m60 2 c0 -13 -12 -22 -22 -16 -10 6 -1 24 13 24
5 0 9 -4 9 -8z m260 -12 c0 -5 -2 -10 -4 -10 -3 0 -8 5 -11 10 -3 6 -1 10 4
10 6 0 11 -4 11 -10z m-1204 -38 c-22 -5 -30 3 -21 18 5 8 11 7 22 -2 15 -12
14 -13 -1 -16z m-281 -14 c7 -7 -6 -8 -35 -3 -25 4 -49 11 -55 17 -6 6 7 7 35
2 25 -4 50 -11 55 -16z m721 0 c4 -5 -6 -8 -22 -6 -15 2 -29 8 -31 14 -5 14
44 6 53 -8z m484 -2 c0 -3 -4 -8 -10 -11 -5 -3 -10 -1 -10 4 0 6 5 11 10 11 6
0 10 -2 10 -4z m-860 -10 c0 -2 3 -11 6 -20 8 -20 -12 -21 -32 -2 -19 20 -18
26 6 26 11 0 20 -2 20 -4z m920 -5 c0 -12 -20 -25 -27 -18 -7 7 6 27 18 27 5
0 9 -4 9 -9z m250 -1 c0 -5 -4 -10 -10 -10 -5 0 -10 5 -10 10 0 6 5 10 10 10
6 0 10 -4 10 -10z m-750 -10 c0 -5 -5 -10 -11 -10 -5 0 -7 5 -4 10 3 6 8 10
11 10 2 0 4 -4 4 -10z m455 0 c3 -5 1 -10 -4 -10 -6 0 -11 5 -11 10 0 6 2 10
4 10 3 0 8 -4 11 -10z m65 -25 c0 -8 7 -15 15 -15 8 0 15 -4 15 -10 0 -17 -24
-11 -42 9 -16 18 -14 31 4 31 4 0 8 -7 8 -15z m2057 -17 c-3 -7 -5 -2 -5 12 0
14 2 19 5 13 2 -7 2 -19 0 -25z m-2967 -8 c0 -5 -2 -10 -4 -10 -3 0 -8 5 -11
10 -3 6 -1 10 4 10 6 0 11 -4 11 -10z m-10 -40 c0 -4 -11 -5 -25 -2 -14 2 -23
8 -20 12 6 10 45 1 45 -10z m-85 0 c3 -5 -1 -10 -9 -10 -9 0 -16 5 -16 10 0 6
4 10 9 10 6 0 13 -4 16 -10z m241 -6 c18 -15 18 -15 -6 -10 -14 3 -29 6 -33 6
-5 0 -5 5 -2 10 9 14 18 13 41 -6z m154 -41 c0 -10 -4 -14 -8 -8 -4 6 -11 13
-16 18 -5 4 -2 7 7 7 10 0 17 -8 17 -17z m2622 -10 c-4 -20 -7 -23 -10 -10 -2
9 -9 17 -15 17 -7 0 -6 4 3 10 24 15 28 12 22 -17z m-3072 -34 c0 -11 -4 -17
-10 -14 -5 3 -10 15 -10 26 0 11 5 17 10 14 6 -3 10 -15 10 -26z m120 21 c0
-5 -4 -10 -10 -10 -5 0 -10 5 -10 10 0 6 5 10 10 10 6 0 10 -4 10 -10z m188
-17 c5 -18 -10 -16 -34 2 -18 15 -18 15 5 13 14 -2 26 -9 29 -15z m907 -12
c-3 -6 -11 -11 -17 -11 -6 0 -6 6 2 15 14 17 26 13 15 -4z m1825 4 c5 3 10 1
10 -5 0 -17 -43 -8 -48 10 -5 13 -3 13 11 2 9 -8 21 -11 27 -7z m-2910 -5 c0
-5 -7 -10 -16 -10 -8 0 -12 5 -9 10 3 6 10 10 16 10 5 0 9 -4 9 -10z m90 0
c13 -8 13 -10 -2 -10 -9 0 -20 5 -23 10 -8 13 5 13 25 0z m2875 -20 c2 -20
-20 -34 -37 -24 -7 4 -4 10 6 16 9 5 16 16 16 25 0 22 13 7 15 -17z m-2930 10
c3 -6 -1 -7 -9 -4 -18 7 -21 14 -7 14 6 0 13 -4 16 -10z m2625 6 c0 -2 -7 -6
-15 -10 -8 -3 -15 -1 -15 4 0 6 7 10 15 10 8 0 15 -2 15 -4z m37 -2 c-3 -3
-12 -4 -19 -1 -8 3 -5 6 6 6 11 1 17 -2 13 -5z m190 -20 c-3 -3 -12 -4 -19 -1
-8 3 -5 6 6 6 11 1 17 -2 13 -5z m-162 -14 c3 -5 1 -10 -4 -10 -6 0 -11 5 -11
10 0 6 2 10 4 10 3 0 8 -4 11 -10z m-2555 -4 c0 -3 -4 -8 -10 -11 -5 -3 -10
-1 -10 4 0 6 5 11 10 11 6 0 10 -2 10 -4z m1425 -6 c3 -5 -1 -10 -9 -10 -9 0
-16 5 -16 10 0 6 4 10 9 10 6 0 13 -4 16 -10z m145 0 c0 -5 -7 -10 -15 -10 -8
0 -15 -9 -15 -20 0 -11 -4 -20 -10 -20 -18 0 -11 48 8 53 29 8 32 7 32 -3z
m-75 -20 c-3 -5 -13 -10 -21 -10 -8 0 -14 5 -14 10 0 6 9 10 21 10 11 0 17 -4
14 -10z m-168 -27 c-3 -3 -11 -2 -17 2 -9 6 -9 10 1 16 14 8 27 -7 16 -18z
m-1552 -3 c3 -6 -1 -7 -9 -4 -18 7 -21 14 -7 14 6 0 13 -4 16 -10z m381 -25
c9 -8 21 -15 29 -15 7 0 24 -13 37 -28 13 -15 31 -31 41 -35 9 -3 17 -13 17
-21 0 -8 9 -18 20 -21 11 -3 23 -18 26 -33 19 -86 25 -100 44 -105 11 -3 20
-12 20 -21 0 -20 -10 -20 -25 0 -9 13 -10 9 -7 -20 4 -31 9 -38 33 -43 16 -3
29 -11 29 -18 0 -7 11 -20 25 -29 14 -9 23 -21 20 -26 -3 -4 2 -16 11 -25 19
-19 11 -33 -10 -16 -11 9 -15 8 -20 -4 -9 -26 -33 -17 -57 23 -13 20 -24 42
-24 49 0 6 -26 37 -58 68 -42 40 -58 62 -55 78 4 32 -9 47 -43 47 -19 0 -29 5
-29 15 0 8 5 15 10 15 6 0 10 -4 10 -10 0 -5 9 -10 21 -10 16 0 19 4 14 18 -5
9 -8 25 -9 35 0 9 -8 17 -17 17 -9 0 -27 8 -40 18 -31 24 -84 42 -123 42 -18
0 -37 5 -44 12 -9 9 -18 5 -38 -15 -20 -20 -27 -38 -30 -78 -1 -28 -8 -57 -14
-64 -24 -29 21 -182 54 -187 12 -2 22 -11 24 -20 3 -14 -3 -18 -26 -18 -23 0
-33 7 -48 35 -10 19 -22 35 -26 35 -5 0 -8 8 -8 19 0 26 -25 83 -36 82 -14 -2
-16 91 -1 119 7 14 23 26 35 28 26 4 30 22 5 22 -17 1 -17 1 -1 11 10 5 15 17
12 27 -5 14 -4 14 4 2 9 -12 14 -12 36 0 39 21 33 35 -14 31 -11 -1 -10 2 3
10 11 6 41 12 68 13 27 0 49 5 49 10 0 14 89 -2 106 -19z m2284 5 c0 -11 -29
-40 -40 -40 -8 0 -30 32 -30 44 0 7 42 13 58 8 6 -2 12 -8 12 -12z m-1060 0
c0 -5 -4 -10 -9 -10 -6 0 -13 5 -16 10 -3 6 1 10 9 10 9 0 16 -4 16 -10z
m-1507 -17 c-7 -2 -19 -2 -25 0 -7 3 -2 5 12 5 14 0 19 -2 13 -5z m2757 -3
c-36 -11 -52 -11 -45 0 3 6 21 10 38 9 31 -1 31 -1 7 -9z m45 1 c3 -5 1 -12
-5 -16 -5 -3 -10 1 -10 9 0 18 6 21 15 7z m-5 -47 c0 -7 -11 -11 -25 -10 -33
1 -33 21 0 21 14 0 25 -5 25 -11z m-2620 -116 c3 -25 11 -53 18 -61 11 -13 10
-15 -7 -10 -19 5 -27 29 -22 70 1 6 -3 14 -9 18 -14 9 -12 37 3 33 6 -3 14
-25 17 -50z m2547 12 c17 -34 8 -38 -21 -7 -13 14 -26 23 -29 21 -3 -3 -8 0
-12 6 -5 8 2 10 21 8 18 -2 33 -12 41 -28z m71 18 c-7 -20 -54 -22 -61 -4 -5
13 1 16 29 16 24 0 34 -4 32 -12z m-121 -24 c-3 -3 -12 -4 -19 -1 -8 3 -5 6 6
6 11 1 17 -2 13 -5z m133 -25 c0 -5 -10 -9 -21 -9 -18 0 -19 2 -9 15 12 15 30
12 30 -6z m-2680 -49 c0 -5 -4 -10 -10 -10 -5 0 -10 5 -10 10 0 6 5 10 10 10
6 0 10 -4 10 -10z m78 -42 c-2 -7 6 -12 16 -13 13 0 20 -8 21 -22 2 -30 -8
-29 -31 2 -10 14 -25 23 -31 20 -7 -2 -13 0 -13 4 0 9 16 18 33 20 4 1 6 -4 5
-11z m-70 -26 c2 -7 -3 -12 -12 -12 -9 0 -16 7 -16 16 0 17 22 14 28 -4z m182
-37 c20 -24 6 -28 -15 -5 -10 11 -13 20 -8 20 6 0 16 -7 23 -15z m2117 9 c-3
-3 -12 -4 -19 -1 -8 3 -5 6 6 6 11 1 17 -2 13 -5z m-2002 -18 c14 -8 23 -16
18 -19 -4 -3 -19 3 -32 14 -28 23 -23 24 14 5z m2008 -21 c-7 -21 -12 -19 -10
4 0 11 5 18 9 15 4 -3 5 -11 1 -19z m-2073 -17 c0 -6 -6 -5 -15 2 -8 7 -15 14
-15 16 0 2 7 1 15 -2 8 -4 15 -11 15 -16z m-156 -13 c3 -8 1 -15 -4 -15 -6 0
-10 7 -10 15 0 8 2 15 4 15 2 0 6 -7 10 -15z m-800 -63 c20 -13 19 -13 -9 -7
-32 7 -55 22 -55 37 0 8 9 4 64 -30z m856 12 c0 -8 -4 -14 -10 -14 -5 0 -10 9
-10 21 0 11 5 17 10 14 6 -3 10 -13 10 -21z m193 6 c3 -11 1 -20 -4 -20 -5 0
-9 9 -9 20 0 11 2 20 4 20 2 0 6 -9 9 -20z m-968 -17 c35 -17 43 -27 27 -37
-10 -6 -72 35 -72 47 0 10 5 9 45 -10z m921 -40 c-10 -10 -19 5 -10 18 6 11 8
11 12 0 2 -7 1 -15 -2 -18z m-1127 -27 c9 -11 6 -15 -14 -18 -24 -5 -34 9 -18
25 10 10 19 8 32 -7z m225 -3 c8 -8 12 -9 76 -12 19 -1 31 -5 25 -9 -5 -4 -15
-16 -21 -26 -15 -28 -34 -31 -34 -6 0 15 -5 20 -14 17 -8 -3 -17 1 -20 9 -3 8
-15 14 -26 14 -11 0 -20 5 -20 10 0 12 23 13 34 3z m106 -59 c0 -8 -5 -12 -10
-9 -6 4 -8 11 -5 16 9 14 15 11 15 -7z m750 -24 c0 -11 -7 -20 -15 -20 -15 0
-21 21 -8 33 12 13 23 7 23 -13z m-1170 -72 c0 -10 -4 -18 -9 -18 -16 0 -23
19 -16 41 6 17 9 19 16 8 5 -8 9 -22 9 -31z"/>
<path d="M400 1649 c0 -10 9 -23 19 -29 25 -13 34 -13 26 0 -3 6 1 13 9 16 29
11 17 29 -19 30 -27 0 -35 -3 -35 -17z"/>
<path d="M530 1605 c0 -9 9 -15 21 -15 18 0 19 2 9 15 -7 8 -16 15 -21 15 -5
0 -9 -7 -9 -15z"/>
<path d="M830 1606 c0 -9 5 -16 10 -16 6 0 10 4 10 9 0 6 -4 13 -10 16 -5 3
-10 -1 -10 -9z"/>
<path d="M745 1550 c10 -11 20 -18 23 -15 7 6 -18 35 -31 35 -5 0 -2 -9 8 -20z"/>
<path d="M945 1520 c-3 -5 -1 -10 4 -10 6 0 11 5 11 10 0 6 -2 10 -4 10 -3 0
-8 -4 -11 -10z"/>
<path d="M867 1501 c-5 -22 1 -33 14 -25 12 7 12 44 0 44 -5 0 -11 -9 -14 -19z"/>
<path d="M857 1443 c-12 -11 -8 -23 8 -23 8 0 15 7 15 15 0 16 -12 20 -23 8z"/>
<path d="M1227 1333 c-4 -3 -7 -11 -7 -17 0 -6 5 -5 12 2 6 6 9 14 7 17 -3 3
-9 2 -12 -2z"/>
<path d="M1180 1223 c0 -4 8 -17 16 -28 15 -20 16 -20 12 4 -3 22 -28 44 -28
24z"/>
<path d="M1237 1156 c-6 -16 2 -28 14 -20 12 7 11 34 0 34 -5 0 -11 -6 -14
-14z"/>
<path d="M1767 1223 c-11 -18 11 -35 39 -31 40 4 38 32 -3 36 -17 2 -33 -1
-36 -5z"/>
<path d="M1770 1163 c0 -6 27 -33 34 -33 16 0 3 28 -14 33 -11 3 -20 3 -20 0z"/>
<path d="M2066 1066 c7 -19 48 -22 42 -3 -3 6 -14 13 -26 15 -16 3 -20 -1 -16
-12z"/>
<path d="M2005 1060 c27 -12 35 -12 35 0 0 6 -12 10 -27 9 -25 0 -26 -1 -8 -9z"/>
<path d="M1902 1033 c4 -20 48 -29 48 -9 0 13 -20 26 -42 26 -5 0 -8 -7 -6
-17z"/>
<path d="M2170 1010 c0 -5 7 -7 15 -4 8 4 15 8 15 10 0 2 -7 4 -15 4 -8 0 -15
-4 -15 -10z"/>
<path d="M2046 995 c4 -8 8 -15 10 -15 2 0 4 7 4 15 0 8 -4 15 -10 15 -5 0 -7
-7 -4 -15z"/>
<path d="M1260 521 c0 -6 5 -13 10 -16 6 -3 10 1 10 9 0 9 -4 16 -10 16 -5 0
-10 -4 -10 -9z"/>
<path d="M2100 4685 c7 -9 15 -13 17 -11 7 7 -7 26 -19 26 -6 0 -6 -6 2 -15z"/>
<path d="M3025 4690 c3 -5 23 -17 43 -27 20 -9 43 -25 50 -35 7 -10 17 -18 22
-18 5 0 21 -11 35 -24 14 -13 37 -26 50 -28 25 -5 25 -5 25 68 l0 74 -116 0
c-72 0 -113 -4 -109 -10z"/>
<path d="M3466 4684 c-10 -26 -7 -52 7 -57 6 -3 2 -6 -11 -6 -14 -1 -22 -6
-19 -13 2 -8 17 -12 36 -10 28 2 31 -1 31 -26 0 -19 -5 -28 -17 -30 -43 -4
-63 -9 -70 -17 -7 -7 18 -4 96 9 8 1 19 10 26 19 7 9 19 17 28 17 23 0 73 54
69 74 -3 12 -9 15 -25 10 -34 -10 -48 -25 -42 -45 4 -11 2 -19 -4 -19 -6 0
-11 4 -11 9 0 6 -12 16 -27 23 -16 7 -28 20 -28 28 0 10 9 14 28 12 21 -2 27
1 27 18 0 17 -6 20 -44 20 -31 0 -46 -5 -50 -16z"/>
<path d="M6350 4405 c0 -162 1 -295 3 -295 3 0 192 96 233 118 11 6 34 18 52
26 65 32 98 50 124 68 14 10 33 18 42 18 9 0 16 7 16 15 0 22 27 18 40 -5 6
-11 17 -20 25 -20 24 0 17 19 -10 32 -32 14 -32 28 0 28 14 0 35 9 47 19 l21
20 -24 -1 c-13 -1 -35 -10 -48 -20 -22 -16 -26 -17 -41 -3 -9 8 -30 15 -46 15
-27 1 -28 2 -11 14 26 20 169 31 195 15 17 -11 28 -8 78 19 33 17 101 52 152
78 51 26 99 55 105 63 7 9 18 16 26 16 8 0 16 6 19 13 2 7 -5 12 -16 12 -11 0
-22 -5 -24 -12 -6 -17 -108 -21 -108 -4 0 9 17 16 45 20 25 4 45 12 45 17 0 7
-38 8 -112 2 -172 -12 -293 -7 -306 14 -10 16 -75 11 -96 -7 -15 -12 -19 -12
-26 1 -8 11 -47 14 -205 16 l-195 2 0 -294z m815 228 c-11 -3 -24 -9 -29 -14
-15 -14 -66 -11 -66 4 0 8 19 12 58 13 31 1 48 0 37 -3z m-425 -197 c0 -9 -40
-13 -46 -5 -3 5 6 9 20 9 14 0 26 -2 26 -4z m37 -52 c-3 -3 -12 -4 -19 -1 -8
3 -5 6 6 6 11 1 17 -2 13 -5z"/>
<path d="M8803 4683 c9 -9 19 -14 23 -11 10 10 -6 28 -24 28 -15 0 -15 -1 1
-17z"/>
<path d="M2035 4680 c3 -5 8 -10 11 -10 2 0 4 5 4 10 0 6 -5 10 -11 10 -5 0
-7 -4 -4 -10z"/>
<path d="M3660 4670 c0 -5 5 -10 11 -10 5 0 7 5 4 10 -3 6 -8 10 -11 10 -2 0
-4 -4 -4 -10z"/>
<path d="M8250 4660 c0 -15 20 -22 46 -16 35 9 29 21 -11 23 -19 1 -35 -2 -35
-7z"/>
<path d="M9241 4651 c-10 -7 -10 -10 -1 -16 6 -4 16 -3 22 3 13 13 -4 23 -21
13z"/>
<path d="M2773 4636 c-20 -9 -32 -26 -19 -26 16 0 56 21 56 30 0 12 -7 11 -37
-4z"/>
<path d="M7366 4635 c4 -10 -3 -26 -17 -41 -20 -21 -23 -35 -24 -97 0 -57 -3
-72 -15 -73 -30 -2 -32 -4 -20 -19 10 -12 9 -16 -4 -20 -9 -3 -23 -7 -32 -10
-10 -3 -13 -11 -9 -25 5 -17 2 -20 -20 -20 -17 0 -24 -4 -19 -11 3 -6 0 -15
-7 -20 -11 -7 -11 -9 2 -9 23 0 49 -32 32 -37 -7 -3 -13 -9 -13 -15 0 -6 7 -7
16 -4 13 5 15 2 9 -11 -11 -26 -8 -56 7 -68 15 -11 22 -65 11 -81 -5 -6 -24
-21 -43 -34 l-35 -22 33 6 c17 3 32 2 32 -2 0 -4 3 -18 7 -31 5 -20 3 -23 -10
-18 -10 4 -17 2 -17 -4 0 -5 10 -14 23 -18 19 -8 20 -10 5 -16 -11 -4 -18 -18
-18 -32 0 -19 4 -23 18 -19 9 3 30 2 47 -2 l29 -8 -31 -23 c-22 -17 -29 -29
-25 -43 3 -15 1 -19 -9 -16 -8 3 -13 12 -11 22 2 9 -4 16 -13 16 -8 0 -15 -5
-15 -11 0 -6 -7 -17 -15 -25 -13 -13 -17 -13 -39 1 -23 16 -26 15 -48 -7 -13
-13 -27 -23 -32 -23 -5 0 -12 -9 -17 -20 -6 -17 -8 -17 -8 -2 -1 21 -10 22
-40 1 -16 -12 -22 -23 -18 -41 3 -18 -1 -27 -17 -32 -20 -8 -20 -8 4 -16 15
-5 25 -4 28 4 3 8 9 8 24 0 18 -10 19 -11 2 -23 -16 -12 -15 -14 9 -20 15 -3
27 -11 27 -17 0 -6 -4 -8 -9 -4 -15 9 -24 -15 -11 -30 15 -18 3 -40 -14 -26
-7 6 -17 6 -26 1 -25 -16 -40 -11 -40 12 0 21 0 21 14 2 13 -17 15 -18 21 -2
8 20 -15 46 -66 71 -34 18 -37 18 -77 0 -23 -10 -40 -23 -38 -29 2 -6 -2 -11
-9 -10 -8 0 -14 -3 -14 -8 1 -5 -5 -12 -13 -17 -10 -6 -10 -11 0 -21 17 -17
16 -67 -3 -64 -8 1 -18 5 -21 9 -11 10 -44 8 -44 -2 0 -15 16 -21 57 -26 21
-2 40 -4 42 -4 2 -1 -4 -10 -13 -20 -10 -11 -25 -17 -35 -14 -24 6 -35 -11
-22 -35 8 -16 5 -17 -40 -15 -27 1 -49 -3 -49 -8 0 -5 7 -9 15 -9 8 0 26 -10
40 -22 19 -16 22 -24 13 -35 -6 -8 -19 -11 -31 -7 -11 4 -23 1 -28 -7 -11 -19
-2 -29 27 -29 13 0 24 -4 24 -10 0 -5 -5 -10 -11 -10 -6 0 -9 -6 -6 -14 8 -20
-82 -8 -107 16 -11 10 -23 18 -28 18 -4 0 -8 6 -8 14 0 20 -67 76 -90 76 -11
0 -20 -4 -20 -10 0 -5 5 -10 11 -10 6 0 8 -8 4 -19 -5 -17 -1 -19 37 -15 34 3
38 2 18 -5 -17 -6 -20 -9 -7 -10 9 -1 17 -7 17 -15 0 -8 6 -16 13 -19 6 -2 8
-8 4 -13 -4 -5 -11 -4 -15 2 -10 15 -40 25 -46 15 -10 -15 19 -41 47 -43 34
-3 30 -22 -7 -26 -21 -3 -29 1 -33 17 -4 18 -13 21 -52 21 -26 0 -52 5 -57 10
-7 7 -17 5 -30 -5 -18 -15 -18 -15 0 -8 15 5 18 3 13 -9 -4 -11 2 -18 16 -23
41 -13 51 -14 70 -4 15 9 22 6 34 -11 9 -12 18 -18 22 -13 3 5 25 14 48 20 39
10 43 9 49 -10 4 -12 17 -30 30 -40 13 -10 24 -27 24 -38 0 -15 -7 -19 -32
-19 -47 0 -63 12 -49 38 6 11 11 23 11 26 0 12 -28 5 -40 -9 -7 -8 -23 -15
-36 -15 -32 0 -38 -16 -14 -40 26 -26 40 -26 40 1 0 30 22 18 26 -14 1 -15 -1
-25 -6 -22 -5 3 -19 1 -31 -5 -15 -9 -24 -9 -32 -1 -17 17 -27 13 -25 -11 0
-13 -1 -27 -3 -33 -2 -5 1 -10 6 -10 6 0 10 5 10 12 0 20 11 24 40 13 22 -8
31 -7 45 5 20 18 36 19 46 3 5 -7 2 -9 -8 -5 -19 7 -61 -20 -52 -35 4 -6 10
-6 17 1 13 13 30 15 23 2 -3 -5 0 -9 7 -8 40 1 67 -4 67 -15 0 -6 -3 -9 -6 -5
-4 3 -19 0 -34 -8 -19 -10 -30 -11 -38 -3 -8 8 -19 7 -42 -2 -23 -10 -34 -10
-43 -1 -8 8 -7 11 5 11 23 0 34 20 17 31 -21 13 -27 11 -41 -15 -13 -24 -13
-24 -36 -5 -14 11 -21 23 -16 31 4 7 4 10 -1 6 -4 -4 -15 0 -24 9 -11 12 -13
17 -3 21 19 6 14 22 -8 22 -12 0 -24 9 -29 23 -5 13 -16 29 -25 36 -14 12 -16
8 -16 -35 l-1 -49 -19 25 c-10 14 -26 33 -35 43 -9 10 -21 30 -28 45 -6 15
-18 34 -27 42 -18 19 -37 47 -50 79 -10 23 -11 23 -24 6 -12 -16 -13 -15 -9
12 4 23 -2 36 -26 61 -17 17 -31 33 -31 36 0 10 -53 90 -72 109 -10 10 -18 23
-18 30 0 7 -11 24 -25 39 -14 15 -25 34 -25 41 0 8 -7 18 -15 21 -9 3 -21 18
-28 33 -7 16 -21 41 -32 57 l-19 29 -12 -34 c-14 -39 -18 -139 -6 -139 5 0 15
-12 23 -27 7 -16 24 -41 36 -56 12 -15 30 -43 39 -62 9 -19 26 -45 39 -59 13
-14 27 -36 31 -48 6 -22 36 -64 69 -99 8 -9 15 -21 15 -26 0 -6 9 -22 20 -35
29 -34 68 -89 82 -118 7 -14 15 -27 19 -30 3 -3 14 -20 23 -37 9 -18 21 -33
26 -33 5 0 12 -9 15 -21 4 -12 14 -29 23 -39 10 -10 23 -25 30 -34 9 -12 12
-162 12 -676 l0 -660 78 -99 c85 -110 102 -136 145 -231 16 -36 35 -78 43 -95
8 -16 20 -52 28 -80 8 -27 21 -74 29 -102 21 -72 31 -306 18 -433 -9 -102 -48
-247 -85 -315 -9 -16 -16 -35 -16 -42 0 -6 -9 -28 -21 -47 l-21 -36 244 0
c224 0 246 2 261 18 12 13 14 21 6 29 -8 8 -5 23 8 54 11 24 34 91 52 149 40
131 61 175 84 174 9 -1 17 2 17 7 0 5 -4 9 -10 9 -16 0 -12 47 8 82 10 18 24
53 32 77 8 24 19 45 25 48 7 2 10 15 8 28 -5 24 35 153 68 218 10 22 19 47 19
56 0 10 11 38 24 63 13 25 27 60 31 78 4 19 16 49 26 67 11 19 19 45 19 58 0
13 14 40 31 60 30 34 33 35 101 35 52 0 86 -6 127 -24 31 -13 83 -31 116 -41
33 -10 85 -28 115 -40 30 -12 71 -28 90 -34 19 -7 55 -20 80 -28 25 -9 66 -24
92 -34 26 -11 67 -19 92 -19 73 0 185 -44 288 -114 15 -10 42 -22 60 -26 37
-10 118 -37 163 -56 17 -7 59 -22 95 -34 36 -12 69 -26 74 -31 6 -5 21 -9 33
-9 13 0 43 -10 66 -22 23 -11 56 -25 72 -29 54 -14 166 -57 190 -73 13 -9 33
-16 45 -16 11 0 37 -9 57 -20 21 -11 44 -20 51 -20 7 0 31 -9 52 -20 l40 -20
0 1060 0 1061 -22 -7 c-13 -3 -31 -13 -40 -21 -11 -10 -26 -13 -47 -8 -20 4
-31 3 -31 -4 0 -6 5 -11 11 -11 7 0 0 -9 -14 -20 -14 -11 -31 -20 -39 -20 -7
0 -24 -9 -38 -20 -14 -11 -33 -20 -42 -20 -9 0 -20 -5 -23 -10 -4 -6 -15 -8
-26 -5 -14 5 -17 2 -13 -8 3 -10 -5 -18 -23 -26 -15 -6 -53 -25 -83 -42 -30
-18 -111 -61 -180 -96 -69 -36 -129 -69 -135 -74 -5 -5 -16 -9 -25 -9 -13 1
-12 3 2 14 12 9 14 16 7 23 -7 7 -7 13 -1 17 6 3 13 2 16 -2 8 -13 53 -3 67
14 8 10 8 14 0 14 -6 0 -11 7 -11 15 0 8 -7 15 -15 15 -8 0 -15 -4 -15 -10 0
-5 5 -10 10 -10 6 0 10 -4 10 -8 0 -4 -16 -6 -35 -4 -24 3 -35 10 -36 21 0 10
-2 11 -6 4 -5 -15 -33 -18 -33 -4 0 5 7 14 15 21 13 10 19 10 33 -4 23 -20 32
-20 32 -1 0 8 9 15 20 15 11 0 20 4 20 9 0 12 -45 22 -64 15 -9 -3 -16 -1 -16
5 0 7 8 15 18 18 21 8 46 33 35 34 -4 1 -12 2 -18 3 -5 0 -11 5 -12 10 -1 5
-7 12 -13 16 -9 5 -9 9 -1 14 6 4 14 0 17 -8 9 -23 26 -19 19 4 -5 15 -2 20
13 20 20 0 36 23 25 34 -4 3 -19 6 -35 6 -23 0 -28 4 -28 25 0 18 4 23 15 19
9 -4 23 3 34 15 11 13 30 21 50 21 38 0 41 17 5 30 -21 8 -25 15 -20 34 3 13
3 26 -1 30 -12 12 -9 56 4 56 7 0 13 -6 13 -14 0 -9 8 -12 25 -8 14 2 25 9 25
14 0 5 -8 7 -19 3 -10 -3 -24 1 -31 10 -7 8 -19 15 -26 15 -8 0 -14 10 -14 25
0 18 5 25 20 25 13 0 20 7 20 20 0 21 -15 27 -25 10 -14 -23 -21 -7 -15 35 4
25 17 56 28 68 12 13 22 34 22 46 0 20 2 22 16 10 13 -10 17 -10 24 2 7 9 5
15 -5 17 -11 3 -13 11 -9 30 17 69 35 90 48 57 6 -16 36 -21 36 -7 0 14 -45
52 -62 52 -9 0 -18 4 -20 9 -1 5 -12 11 -23 13 -11 1 -22 12 -25 23 -5 15 -13
19 -35 17 l-30 -4 22 19 c17 15 19 23 11 31 -22 22 -48 14 -48 -13 0 -27 -7
-30 -30 -15 -10 6 -11 10 -2 10 6 0 12 11 12 25 0 14 -4 25 -10 25 -20 0 -10
38 13 44 19 5 20 8 7 19 -8 6 -14 22 -12 35 3 17 10 22 32 22 35 0 45 13 30
40 -12 22 -54 27 -66 9 -4 -8 -9 -7 -15 2 -5 9 0 17 19 25 17 8 21 13 11 13
-19 1 -33 27 -20 36 16 9 -4 70 -27 80 -31 14 -28 22 16 36 20 6 53 25 73 40
20 16 40 29 44 29 4 0 18 9 32 20 28 22 65 27 61 9 -2 -6 2 -14 9 -16 17 -6
29 47 13 57 -12 7 -9 16 29 80 5 8 14 28 20 44 9 22 14 26 25 17 8 -7 18 -10
22 -9 5 2 11 -1 14 -7 5 -13 51 -37 58 -30 7 7 -58 65 -74 65 -16 0 -28 41
-27 93 1 43 -2 45 -27 15 -18 -22 -19 -22 -38 -4 -12 10 -18 24 -15 32 7 19
-26 44 -52 40 -11 -2 -14 -1 -7 1 6 3 12 9 12 14 0 12 -37 12 -45 -1 -8 -13
-25 -3 -25 14 0 18 52 15 73 -3 9 -7 22 -11 29 -9 22 8 -34 37 -81 43 -52 6
-90 24 -53 25 17 0 23 5 20 18 -4 23 -85 26 -97 4 -5 -9 -17 -13 -30 -9 -32 8
-34 -7 -5 -38 30 -33 25 -43 -10 -20 -15 10 -35 15 -47 12 -14 -4 -29 2 -44
17 -22 22 -24 22 -28 5 -6 -24 -43 -25 -56 -2 -5 10 -13 15 -17 11 -4 -4 -1
-14 5 -22 8 -9 8 -16 2 -20 -13 -8 -41 33 -34 50 8 21 -10 17 -24 -6 -11 -16
-10 -21 3 -28 15 -8 15 -10 0 -15 -23 -9 -20 -26 7 -37 l22 -9 -22 0 c-26 -1
-29 -11 -10 -30 10 -11 7 -12 -13 -5 -14 5 -47 8 -73 7 -32 -1 -60 5 -82 17
-19 11 -37 15 -40 10 -3 -5 -1 -11 5 -15 13 -8 13 -25 -1 -25 -5 0 -7 5 -3 12
4 7 3 8 -5 4 -9 -6 -9 -11 1 -24 10 -12 10 -16 1 -19 -7 -3 -13 -11 -13 -19 0
-8 6 -11 15 -8 8 4 15 1 15 -6 0 -7 7 -10 16 -6 14 5 15 4 5 -8 -8 -10 -23
-13 -46 -9 -31 5 -33 3 -40 -28 -5 -19 -10 -27 -12 -19 -9 33 -27 60 -39 60
-7 0 -14 5 -16 12 -2 6 -9 9 -15 7 -8 -3 -8 -14 2 -41 7 -21 9 -35 4 -32 -5 3
-9 0 -9 -6 0 -6 12 -15 26 -21 36 -13 23 -23 -21 -15 -35 7 -45 19 -25 31 16
10 12 35 -6 35 -25 0 -104 -50 -104 -66 0 -8 -7 -17 -15 -20 -8 -4 -15 -12
-15 -20 0 -8 -4 -14 -9 -14 -5 0 -16 -3 -24 -6 -11 -4 -17 4 -23 28 -4 18 -7
41 -5 51 2 19 -14 23 -24 6 -4 -6 -13 -8 -21 -5 -8 3 -14 1 -14 -5 0 -12 -42
-1 -51 14 -5 6 -17 6 -38 -1 -19 -7 -33 -7 -36 -1 -4 5 -17 9 -30 9 -19 0 -23
-5 -21 -25 1 -14 6 -28 9 -32 11 -10 8 -25 -3 -18 -6 4 -16 2 -23 -3 -23 -18
-77 -23 -83 -7 -4 8 -14 15 -24 15 -11 0 -22 5 -25 10 -14 22 -71 11 -100 -20
-16 -16 -34 -30 -41 -30 -7 0 -17 -6 -21 -14 -4 -7 -18 -18 -31 -25 -12 -7
-20 -16 -17 -20 3 -5 -2 -12 -10 -15 -30 -11 1 27 83 104 91 85 121 108 174
132 49 22 52 57 8 76 -16 8 -30 20 -30 27 0 8 -6 18 -13 22 -8 4 -16 15 -19
24 -4 9 -35 26 -70 39 -34 13 -65 25 -67 26 -10 8 33 49 63 59 30 11 37 10 51
-5 8 -9 15 -24 15 -33 0 -21 24 -22 44 -1 21 21 20 29 -6 47 l-23 16 23 0 c16
1 26 -6 29 -18 3 -12 15 -21 31 -23 14 -2 28 -10 30 -18 5 -13 3 -13 -11 -2
-9 8 -21 11 -27 7 -19 -12 0 -25 36 -25 19 0 46 -7 59 -16 20 -13 28 -14 39
-5 10 8 16 9 21 1 7 -11 52 -3 73 13 9 7 9 13 2 22 -13 15 4 30 21 19 7 -4 9
2 7 17 -4 34 -32 35 -47 2 l-13 -28 -15 23 c-9 12 -23 22 -33 22 -10 0 -23 7
-30 15 -7 8 -17 12 -23 8 -7 -4 -8 0 -4 11 4 10 7 20 7 22 0 2 7 4 15 4 18 0
20 16 4 26 -6 3 -15 0 -20 -7 -8 -12 -10 -12 -18 0 -6 9 -19 12 -37 8 -16 -4
-23 -4 -16 -1 20 9 14 39 -16 67 -19 18 -32 23 -42 17 -10 -6 -20 0 -37 26
-14 20 -32 34 -44 34 -11 0 -18 -4 -15 -9 4 -5 -7 -12 -24 -15 -16 -3 -43 -9
-59 -12 -25 -4 -30 -2 -33 18 -2 12 -11 24 -20 26 -13 3 -16 -1 -12 -13z m411
-291 c-9 -9 -28 6 -21 18 4 6 10 6 17 -1 6 -6 8 -13 4 -17z m-532 -34 c3 -5 1
-10 -4 -10 -6 0 -11 5 -11 10 0 6 2 10 4 10 3 0 8 -4 11 -10z m1650 -60 c3 -5
1 -10 -4 -10 -6 0 -11 5 -11 10 0 6 2 10 4 10 3 0 8 -4 11 -10z m55 -40 c0 -5
-7 -10 -16 -10 -8 0 -12 5 -9 10 3 6 10 10 16 10 5 0 9 -4 9 -10z m60 -70 c0
-5 -2 -10 -4 -10 -3 0 -8 5 -11 10 -3 6 -1 10 4 10 6 0 11 -4 11 -10z m-1070
-115 c0 -8 -4 -15 -10 -15 -5 0 -10 7 -10 15 0 8 5 15 10 15 6 0 10 -7 10 -15z
m-755 -305 c3 -5 1 -10 -4 -10 -6 0 -11 5 -11 10 0 6 2 10 4 10 3 0 8 -4 11
-10z m-85 -34 c0 -3 -4 -8 -10 -11 -5 -3 -10 -1 -10 4 0 6 5 11 10 11 6 0 10
-2 10 -4z m-125 -106 c3 -5 -1 -10 -9 -10 -9 0 -16 5 -16 10 0 6 4 10 9 10 6
0 13 -4 16 -10z m1835 -35 c0 -25 -1 -25 -25 -9 -14 9 -25 20 -25 25 0 5 11 9
25 9 20 0 25 -5 25 -25z m-70 -15 c6 -11 18 -20 27 -20 13 0 14 -3 5 -12 -8
-8 -15 -8 -27 2 -22 18 -38 50 -26 50 6 0 15 -9 21 -20z m78 -48 c6 -18 -15
-14 -22 4 -4 10 -1 14 6 12 6 -2 14 -10 16 -16z m-2818 -3 c0 -7 10 -20 22
-30 21 -19 21 -19 1 -19 -21 0 -57 43 -46 54 10 10 23 7 23 -5z m95 -149 c3
-5 2 -10 -4 -10 -5 0 -13 5 -16 10 -3 6 -2 10 4 10 5 0 13 -4 16 -10z m2805
-102 c0 -5 -10 -6 -21 -3 -19 6 -21 4 -16 -14 3 -14 0 -21 -9 -21 -8 0 -14 5
-14 10 0 6 -7 10 -16 10 -20 0 -8 19 19 29 25 9 57 3 57 -11z m-70 -58 c0 -5
-5 -10 -11 -10 -5 0 -7 5 -4 10 3 6 8 10 11 10 2 0 4 -4 4 -10z m-2136 -125
c-4 -8 -11 -12 -16 -9 -6 4 -5 10 3 15 19 12 19 11 13 -6z m35 -71 c-15 -18
-29 -18 -29 1 0 8 -5 15 -10 15 -6 0 -5 8 2 20 l13 21 18 -22 c13 -16 15 -25
6 -35z m-114 -109 c25 -21 26 -23 7 -18 -12 3 -22 8 -22 12 0 4 -18 5 -40 3
-40 -4 -57 12 -22 21 34 9 47 6 77 -18z m15 -39 c0 -11 -19 -15 -25 -6 -3 5 1
10 9 10 9 0 16 -2 16 -4z m100 -49 c0 -18 -2 -17 -25 7 -14 15 -25 29 -25 31
0 3 11 -1 25 -7 14 -6 25 -20 25 -31z m-134 6 c-7 -7 -26 7 -26 19 0 6 6 6 15
-2 9 -7 13 -15 11 -17z m174 7 c0 -5 -7 -10 -15 -10 -8 0 -15 5 -15 10 0 6 7
10 15 10 8 0 15 -4 15 -10z m2029 -205 c11 -19 16 -35 11 -35 -6 0 -10 5 -10
10 0 6 -7 10 -16 10 -8 0 -12 5 -9 10 4 6 1 17 -5 25 -8 9 -8 15 -2 15 5 0 19
-16 31 -35z m-2049 10 c11 4 20 2 20 -4 0 -6 -7 -11 -15 -11 -8 0 -15 -8 -16
-17 0 -14 -2 -13 -9 5 -5 12 -14 22 -20 22 -5 0 -10 5 -10 11 0 8 4 8 15 -1 8
-6 23 -9 35 -5z m58 -38 c19 -23 4 -53 -26 -52 -33 0 -43 32 -16 52 22 16 29
16 42 0z m52 -23 c0 -8 -4 -12 -10 -9 -5 3 -10 10 -10 16 0 5 5 9 10 9 6 0 10
-7 10 -16z m-30 -54 c0 -5 -2 -10 -4 -10 -3 0 -8 5 -11 10 -3 6 -1 10 4 10 6
0 11 -4 11 -10z m90 -20 c0 -5 -7 -7 -15 -4 -8 4 -15 8 -15 10 0 2 7 4 15 4 8
0 15 -4 15 -10z m-50 -20 c0 -5 -4 -10 -10 -10 -5 0 -10 5 -10 10 0 6 5 10 10
10 6 0 10 -4 10 -10z m40 -25 c0 -8 -9 -15 -20 -15 -22 0 -27 15 -7 23 21 9
27 7 27 -8z m60 -25 c0 -5 -2 -10 -4 -10 -3 0 -8 5 -11 10 -3 6 -1 10 4 10 6
0 11 -4 11 -10z m61 -33 c-6 -6 -20 -5 -38 1 -28 9 -27 9 10 9 22 -1 33 -5 28
-10z m1749 3 c0 -5 -5 -10 -11 -10 -5 0 -7 5 -4 10 3 6 8 10 11 10 2 0 4 -4 4
-10z m19 -21 c-28 -21 -35 -23 -44 -9 -3 5 0 7 9 4 9 -3 20 3 27 15 7 11 17
17 22 14 6 -3 -1 -14 -14 -24z m-1894 1 c3 -5 2 -10 -4 -10 -5 0 -13 5 -16 10
-3 6 -2 10 4 10 5 0 13 -4 16 -10z m140 -19 c-3 -6 -11 -8 -17 -5 -6 4 -5 9 3
15 16 10 23 4 14 -10z m80 -311 c3 -5 1 -10 -4 -10 -6 0 -11 5 -11 10 0 6 2
10 4 10 3 0 8 -4 11 -10z m295 -91 c0 -12 -37 -12 -45 0 -3 5 3 11 12 13 21 5
33 0 33 -13z m510 -29 c0 -5 -2 -10 -4 -10 -3 0 -8 5 -11 10 -3 6 -1 10 4 10
6 0 11 -4 11 -10z m-680 -55 c0 -8 -4 -15 -10 -15 -5 0 -7 7 -4 15 4 8 8 15
10 15 2 0 4 -7 4 -15z m150 -95 c0 -5 -7 -10 -16 -10 -8 0 -12 5 -9 10 3 6 10
10 16 10 5 0 9 -4 9 -10z m7 -46 c-3 -3 -12 -4 -19 -1 -8 3 -5 6 6 6 11 1 17
-2 13 -5z m2018 -24 c3 -5 -3 -10 -15 -10 -12 0 -18 5 -15 10 3 6 10 10 15 10
5 0 12 -4 15 -10z"/>
<path d="M6771 2544 c-18 -21 -6 -30 14 -11 8 9 15 18 15 21 0 11 -15 5 -29
-10z"/>
<path d="M7570 4645 c0 -13 29 -35 45 -35 29 0 13 35 -18 38 -15 2 -27 0 -27
-3z"/>
<path d="M8107 4634 c-3 -3 -1 -17 4 -31 13 -34 5 -39 -20 -14 -23 23 -41 27
-41 10 0 -6 -7 -8 -16 -5 -8 3 -12 2 -9 -3 7 -13 -34 -41 -51 -34 -8 3 -14 -1
-14 -11 0 -9 -5 -16 -11 -16 -7 0 -9 -9 -5 -22 4 -13 9 -48 10 -80 2 -31 8
-62 12 -70 5 -7 14 -35 20 -63 7 -27 15 -60 19 -72 6 -18 3 -23 -9 -23 -10 0
-14 -4 -11 -10 12 -20 62 -11 79 15 18 28 18 41 -1 37 -20 -4 -15 12 7 28 11
8 20 19 20 25 0 6 9 16 19 22 24 15 17 48 -12 58 -28 10 -79 6 -94 -7 -16 -13
-16 -9 -2 30 7 20 21 35 42 43 50 19 84 21 91 4 3 -8 16 -15 30 -15 35 0 56
-10 56 -27 0 -11 7 -13 25 -9 14 4 25 3 25 -1 0 -5 11 -13 25 -20 14 -6 25 -7
25 -2 0 15 34 5 69 -20 l33 -24 26 20 c32 24 35 46 7 51 -33 6 -41 21 -19 37
19 14 19 14 -1 15 -19 0 -19 2 4 19 13 10 33 16 47 13 13 -2 31 -1 40 2 16 6
15 8 -2 21 -10 8 -15 15 -11 15 5 0 1 10 -7 22 -9 12 -16 32 -16 43 0 16 -10
24 -45 33 -25 7 -52 12 -60 12 -22 0 -18 -17 6 -23 11 -3 23 -14 26 -25 3 -14
11 -18 24 -15 12 3 19 0 19 -8 0 -8 3 -24 6 -37 6 -21 4 -22 -22 -16 -16 4
-32 11 -35 17 -4 5 -12 6 -18 3 -6 -4 -11 -1 -11 8 0 9 -11 18 -25 22 -26 6
-32 18 -15 29 18 11 10 25 -14 25 -13 0 -26 -6 -29 -12 -3 -10 -7 -10 -19 0
-9 7 -23 10 -32 6 -10 -4 -18 0 -22 10 -7 19 -45 21 -63 4 -10 -11 -15 -10
-25 5 -14 18 -19 20 -29 11z m83 -24 c0 -5 -4 -10 -10 -10 -5 0 -10 5 -10 10
0 6 5 10 10 10 6 0 10 -4 10 -10z m117 -64 c-2 -6 -12 -11 -22 -11 -10 0 -20
5 -22 11 -2 7 7 12 22 12 15 0 24 -5 22 -12z m-293 -48 c11 -1 21 -9 24 -15 6
-19 -45 -16 -52 3 -3 8 -10 12 -16 9 -5 -3 -10 0 -10 8 0 22 12 28 24 13 6 -8
20 -16 30 -18z m66 -158 c8 -5 11 -12 7 -16 -4 -4 -15 0 -24 9 -18 18 -8 23
17 7z"/>
<path d="M3405 4560 c3 -5 8 -10 11 -10 2 0 4 5 4 10 0 6 -5 10 -11 10 -5 0
-7 -4 -4 -10z"/>
<path d="M1990 4551 c0 -5 7 -12 16 -15 22 -9 24 -8 24 9 0 8 -9 15 -20 15
-11 0 -20 -4 -20 -9z"/>
<path d="M9265 4550 c4 -6 11 -8 16 -5 14 9 11 15 -7 15 -8 0 -12 -5 -9 -10z"/>
<path d="M3707 4500 c-16 -15 -16 -18 -2 -30 20 -16 27 -9 23 23 -3 23 -4 23
-21 7z"/>
<path d="M2017 4493 c-10 -9 -9 -23 2 -23 5 0 11 7 15 15 5 15 -5 20 -17 8z"/>
<path d="M8930 4480 c0 -5 5 -10 10 -10 6 0 10 5 10 10 0 6 -4 10 -10 10 -5 0
-10 -4 -10 -10z"/>
<path d="M7805 4449 c-10 -15 3 -25 16 -12 7 7 7 13 1 17 -6 3 -14 1 -17 -5z"/>
<path d="M8475 4440 c-3 -5 -1 -10 4 -10 6 0 11 5 11 10 0 6 -2 10 -4 10 -3 0
-8 -4 -11 -10z"/>
<path d="M8515 4440 c3 -5 13 -10 21 -10 8 0 12 5 9 10 -3 6 -13 10 -21 10 -8
0 -12 -4 -9 -10z"/>
<path d="M9080 4443 c0 -4 -13 -14 -30 -21 -16 -8 -30 -17 -30 -21 0 -4 13
-22 28 -40 l28 -34 30 30 c28 29 29 31 12 42 -10 6 -18 18 -18 25 0 8 -4 18
-10 21 -5 3 -10 3 -10 -2z"/>
<path d="M8840 4425 c7 -9 15 -13 17 -11 7 7 -7 26 -19 26 -6 0 -6 -6 2 -15z"/>
<path d="M6855 4420 c-3 -5 -1 -10 4 -10 6 0 11 5 11 10 0 6 -2 10 -4 10 -3 0
-8 -4 -11 -10z"/>
<path d="M7080 4420 c0 -5 5 -10 11 -10 5 0 7 5 4 10 -3 6 -8 10 -11 10 -2 0
-4 -4 -4 -10z"/>
<path d="M3185 4410 c3 -5 8 -10 11 -10 2 0 4 5 4 10 0 6 -5 10 -11 10 -5 0
-7 -4 -4 -10z"/>
<path d="M3694 4412 c4 -7 3 -12 -2 -12 -6 0 -13 -17 -17 -37 -9 -48 -23 -67
-40 -53 -9 8 -14 4 -19 -14 -8 -33 2 -56 25 -56 14 0 19 7 19 25 0 26 15 58
38 83 15 17 16 58 0 68 -7 4 -8 3 -4 -4z"/>
<path d="M8618 4413 c7 -3 16 -2 19 1 4 3 -2 6 -13 5 -11 0 -14 -3 -6 -6z"/>
<path d="M8580 4395 c0 -9 5 -15 11 -13 6 2 11 8 11 13 0 5 -5 11 -11 13 -6 2
-11 -4 -11 -13z"/>
<path d="M9556 4401 c-4 -5 -2 -12 3 -15 5 -4 12 -2 15 3 4 5 2 12 -3 15 -5 4
-12 2 -15 -3z"/>
<path d="M8630 4390 c0 -5 4 -10 9 -10 6 0 13 5 16 10 3 6 -1 10 -9 10 -9 0
-16 -4 -16 -10z"/>
<path d="M8890 4390 c0 -5 5 -10 10 -10 6 0 10 5 10 10 0 6 -4 10 -10 10 -5 0
-10 -4 -10 -10z"/>
<path d="M9345 4390 c-8 -13 3 -30 20 -30 14 0 27 24 18 34 -10 9 -31 7 -38
-4z"/>
<path d="M8843 4383 c9 -2 23 -2 30 0 6 3 -1 5 -18 5 -16 0 -22 -2 -12 -5z"/>
<path d="M2095 4370 c3 -5 8 -10 11 -10 2 0 4 5 4 10 0 6 -5 10 -11 10 -5 0
-7 -4 -4 -10z"/>
<path d="M8505 4369 c-12 -19 5 -23 22 -6 16 16 16 17 1 17 -9 0 -20 -5 -23
-11z"/>
<path d="M2040 4354 c0 -8 5 -12 10 -9 6 4 8 11 5 16 -9 14 -15 11 -15 -7z"/>
<path d="M8340 4360 c-8 -5 -11 -12 -7 -16 4 -4 13 -2 19 4 15 15 7 24 -12 12z"/>
<path d="M7890 4346 c0 -8 5 -18 10 -21 6 -3 10 1 10 9 0 8 -4 18 -10 21 -5 3
-10 -1 -10 -9z"/>
<path d="M9110 4340 c-8 -16 -8 -20 4 -20 16 0 29 27 16 35 -5 3 -14 -4 -20
-15z"/>
<path d="M9410 4339 c0 -5 9 -9 20 -9 11 0 20 2 20 4 0 2 -9 6 -20 9 -11 3
-20 1 -20 -4z"/>
<path d="M8280 4330 c0 -5 5 -10 10 -10 6 0 10 5 10 10 0 6 -4 10 -10 10 -5 0
-10 -4 -10 -10z"/>
<path d="M7926 4321 c-4 -7 -5 -15 -2 -18 9 -9 19 4 14 18 -4 11 -6 11 -12 0z"/>
<path d="M9010 4315 c7 -8 16 -12 21 -9 13 8 1 24 -18 24 -13 0 -13 -3 -3 -15z"/>
<path d="M8370 4298 c0 -15 21 -18 35 -5 12 13 11 15 -10 13 -14 0 -25 -4 -25
-8z"/>
<path d="M6926 4282 c-3 -6 -1 -14 5 -17 15 -10 25 3 12 16 -7 7 -13 7 -17 1z"/>
<path d="M8325 4280 c3 -5 11 -10 16 -10 6 0 7 5 4 10 -3 6 -11 10 -16 10 -6
0 -7 -4 -4 -10z"/>
<path d="M9452 4278 c7 -20 48 -23 48 -4 0 11 -9 16 -26 16 -16 0 -24 -5 -22
-12z"/>
<path d="M7195 4260 c-3 -5 -2 -10 4 -10 5 0 13 5 16 10 3 6 2 10 -4 10 -5 0
-13 -4 -16 -10z"/>
<path d="M8100 4260 c0 -5 4 -10 9 -10 6 0 13 5 16 10 3 6 -1 10 -9 10 -9 0
-16 -4 -16 -10z"/>
<path d="M9410 4260 c0 -6 7 -10 15 -10 8 0 15 2 15 4 0 2 -7 6 -15 10 -8 3
-15 1 -15 -4z"/>
<path d="M6708 4253 c6 -3 12 -12 12 -21 0 -15 2 -15 10 -2 14 22 12 26 -12
27 -13 0 -17 -1 -10 -4z"/>
<path d="M7016 4241 c-3 -5 1 -11 9 -15 15 -6 29 7 18 18 -9 9 -21 8 -27 -3z"/>
<path d="M9207 4233 c-18 -17 -5 -33 26 -32 17 1 24 3 15 6 -10 2 -18 11 -18
19 0 15 -12 19 -23 7z"/>
<path d="M7878 4223 c-10 -3 -18 -8 -18 -13 0 -13 33 -21 44 -10 13 13 -3 28
-26 23z"/>
<path d="M9508 4223 c-10 -2 -18 -9 -18 -14 0 -5 10 -7 23 -4 15 4 28 1 36 -9
15 -18 51 -22 51 -6 0 6 -6 10 -14 10 -7 0 -19 7 -26 15 -13 15 -21 16 -52 8z"/>
<path d="M3635 4210 c3 -5 8 -10 11 -10 2 0 4 5 4 10 0 6 -5 10 -11 10 -5 0
-7 -4 -4 -10z"/>
<path d="M7955 4210 c4 -6 11 -8 16 -5 14 9 11 15 -7 15 -8 0 -12 -5 -9 -10z"/>
<path d="M9066 4205 c-3 -8 -1 -15 4 -15 6 0 10 7 10 15 0 8 -2 15 -4 15 -2 0
-6 -7 -10 -15z"/>
<path d="M6590 4191 c0 -5 5 -13 10 -16 6 -3 10 -2 10 4 0 5 -4 13 -10 16 -5
3 -10 2 -10 -4z"/>
<path d="M6995 4190 c3 -5 8 -10 11 -10 2 0 4 5 4 10 0 6 -5 10 -11 10 -5 0
-7 -4 -4 -10z"/>
<path d="M9358 4193 c6 -2 18 -2 25 0 6 3 1 5 -13 5 -14 0 -19 -2 -12 -5z"/>
<path d="M6550 4166 c0 -18 17 -29 30 -21 8 5 7 11 -1 21 -15 18 -29 18 -29 0z"/>
<path d="M9467 4174 c-8 -8 1 -24 14 -24 5 0 9 7 9 15 0 15 -12 20 -23 9z"/>
<path d="M6520 4160 c0 -5 5 -10 11 -10 5 0 7 5 4 10 -3 6 -8 10 -11 10 -2 0
-4 -4 -4 -10z"/>
<path d="M6627 4159 c7 -7 15 -10 18 -7 3 3 -2 9 -12 12 -14 6 -15 5 -6 -5z"/>
<path d="M9362 4134 c10 -10 20 -15 24 -12 3 4 -5 12 -18 18 -22 12 -22 12 -6
-6z"/>
<path d="M6430 4130 c0 -13 28 -25 38 -16 3 4 0 11 -8 16 -20 13 -30 12 -30 0z"/>
<path d="M6700 4130 c0 -5 5 -10 10 -10 6 0 10 5 10 10 0 6 -4 10 -10 10 -5 0
-10 -4 -10 -10z"/>
<path d="M6570 4110 c0 -5 5 -10 10 -10 6 0 10 5 10 10 0 6 -4 10 -10 10 -5 0
-10 -4 -10 -10z"/>
<path d="M6400 4100 c0 -5 5 -10 10 -10 6 0 10 5 10 10 0 6 -4 10 -10 10 -5 0
-10 -4 -10 -10z"/>
<path d="M6700 4091 c0 -12 9 -20 28 -24 33 -6 39 -2 21 16 -25 24 -49 28 -49
8z"/>
<path d="M6460 4075 c0 -9 9 -15 25 -15 16 0 25 6 25 15 0 9 -9 15 -25 15 -16
0 -25 -6 -25 -15z"/>
<path d="M6368 4073 c-18 -5 -26 -43 -9 -43 15 0 42 31 36 41 -4 5 -7 8 -8 8
-1 -1 -10 -3 -19 -6z"/>
<path d="M7613 4073 c-19 -7 -16 -21 7 -28 11 -4 18 -10 15 -15 -7 -11 27 -30
54 -30 14 0 21 6 21 18 0 26 -11 34 -27 21 -15 -13 -43 4 -43 27 0 14 -6 16
-27 7z"/>
<path d="M7977 4045 c6 -17 25 -15 31 3 2 7 -5 12 -17 12 -14 0 -19 -5 -14
-15z"/>
<path d="M9243 4048 c2 -7 10 -13 17 -13 7 0 15 6 18 13 2 7 -5 12 -18 12 -13
0 -20 -5 -17 -12z"/>
<path d="M2080 4026 c0 -9 7 -16 16 -16 9 0 14 5 12 12 -6 18 -28 21 -28 4z"/>
<path d="M3466 4005 c-3 -9 -4 -21 -1 -26 4 -5 0 -6 -7 -4 -21 8 -72 -50 -65
-74 3 -11 -1 -22 -9 -25 -7 -3 -16 -21 -20 -40 -3 -20 -12 -36 -19 -36 -8 0
-21 -14 -29 -32 -20 -38 -20 -38 -1 -38 8 0 15 5 15 11 0 5 4 7 10 4 13 -8 80
63 80 86 0 10 5 19 11 19 7 0 8 14 4 41 -7 38 -6 41 14 34 15 -5 23 -1 27 12
3 10 10 26 16 37 7 14 6 22 -5 33 -12 13 -15 12 -21 -2z"/>
<path d="M7980 4010 c0 -5 5 -10 10 -10 6 0 10 5 10 10 0 6 -4 10 -10 10 -5 0
-10 -4 -10 -10z"/>
<path d="M9233 3993 c-18 -6 -16 -23 1 -23 8 0 16 -6 19 -12 7 -22 19 -1 12
21 -6 21 -11 23 -32 14z"/>
<path d="M2083 3979 c-14 -14 -6 -39 12 -39 18 0 26 15 19 34 -7 19 -16 20
-31 5z"/>
<path d="M9450 3980 c0 -5 7 -10 15 -10 8 0 15 5 15 10 0 6 -7 10 -15 10 -8 0
-15 -4 -15 -10z"/>
<path d="M6416 3972 c-3 -6 -1 -14 5 -17 15 -10 25 3 12 16 -7 7 -13 7 -17 1z"/>
<path d="M6892 3958 c5 -15 28 -18 29 -3 0 6 -7 12 -17 13 -10 3 -15 -1 -12
-10z"/>
<path d="M7158 3963 c7 -3 16 -2 19 1 4 3 -2 6 -13 5 -11 0 -14 -3 -6 -6z"/>
<path d="M7200 3962 c0 -12 19 -26 26 -19 2 2 -2 10 -11 17 -9 8 -15 8 -15 2z"/>
<path d="M6750 3911 c0 -12 6 -21 15 -21 8 0 15 3 15 6 0 3 -7 12 -15 20 -13
14 -15 13 -15 -5z"/>
<path d="M9237 3893 c-14 -4 -16 -8 -6 -19 13 -16 89 -19 89 -4 0 10 -14 14
-37 11 -7 -1 -13 3 -13 9 0 10 -3 11 -33 3z"/>
<path d="M9360 3890 c0 -5 7 -10 15 -10 8 0 15 5 15 10 0 6 -7 10 -15 10 -8 0
-15 -4 -15 -10z"/>
<path d="M2100 3883 c0 -5 5 -15 10 -23 8 -12 10 -11 10 8 0 12 -4 22 -10 22
-5 0 -10 -3 -10 -7z"/>
<path d="M6823 3874 c-8 -22 10 -36 51 -38 42 -2 45 8 14 35 -28 23 -57 24
-65 3z"/>
<path d="M9066 3826 c3 -9 11 -16 16 -16 13 0 5 23 -10 28 -7 2 -10 -2 -6 -12z"/>
<path d="M9385 3830 c-3 -5 -1 -10 4 -10 6 0 11 5 11 10 0 6 -2 10 -4 10 -3 0
-8 -4 -11 -10z"/>
<path d="M9450 3830 c0 -5 7 -10 15 -10 8 0 15 5 15 10 0 6 -7 10 -15 10 -8 0
-15 -4 -15 -10z"/>
<path d="M9545 3830 c3 -5 15 -10 26 -10 11 0 17 5 14 10 -3 6 -15 10 -26 10
-11 0 -17 -4 -14 -10z"/>
<path d="M3546 3814 c-4 -9 -4 -19 -1 -22 2 -3 7 3 11 12 4 9 4 19 1 22 -2 3
-7 -3 -11 -12z"/>
<path d="M9115 3810 c-7 -12 2 -30 16 -30 12 0 12 27 0 35 -5 3 -12 1 -16 -5z"/>
<path d="M6726 3795 c-11 -8 -16 -18 -11 -22 4 -5 10 -2 12 5 4 10 8 10 19 1
18 -15 18 -27 -2 -31 -13 -2 -11 -8 10 -27 l26 -24 0 22 c0 18 4 21 21 16 18
-6 20 -5 10 14 -9 16 -9 21 1 21 20 0 -14 28 -42 34 -15 4 -33 0 -44 -9z"/>
<path d="M9472 3788 c5 -15 28 -18 29 -3 0 6 -7 12 -17 13 -10 3 -15 -1 -12
-10z"/>
<path d="M3510 3745 c-7 -14 -11 -28 -7 -31 3 -3 13 8 22 25 8 17 12 31 7 31
-5 0 -15 -11 -22 -25z"/>
<path d="M6842 3750 c1 -13 9 -25 16 -28 17 -5 15 16 -4 35 -14 15 -16 14 -12
-7z"/>
<path d="M8892 3735 c13 -19 29 -35 36 -35 20 0 14 38 -8 45 -11 3 -20 11 -20
16 0 5 -7 9 -15 9 -12 0 -11 -7 7 -35z"/>
<path d="M6650 3735 c0 -8 6 -15 13 -15 6 0 22 -3 34 -6 18 -5 21 -2 17 13 -7
24 -64 31 -64 8z"/>
<path d="M6920 3740 c0 -5 5 -10 10 -10 6 0 10 5 10 10 0 6 -4 10 -10 10 -5 0
-10 -4 -10 -10z"/>
<path d="M2215 3721 c-7 -12 12 -24 25 -16 11 7 4 25 -10 25 -5 0 -11 -4 -15
-9z"/>
<path d="M2167 3705 c-17 -12 -17 -14 5 -29 12 -9 35 -16 50 -16 16 0 28 -4
28 -10 0 -5 7 -10 15 -10 18 0 19 5 3 29 -6 10 -19 16 -28 14 -10 -3 -26 4
-36 15 -16 18 -22 18 -37 7z"/>
<path d="M3446 3711 c-3 -5 3 -11 13 -14 14 -3 18 -1 14 9 -6 16 -19 18 -27 5z"/>
<path d="M6975 3690 c-3 -5 1 -10 10 -10 9 0 13 5 10 10 -3 6 -8 10 -10 10 -2
0 -7 -4 -10 -10z"/>
<path d="M9266 3693 c-12 -12 -6 -33 9 -33 8 0 15 6 15 14 0 17 -14 28 -24 19z"/>
<path d="M6605 3670 c-3 -5 1 -10 9 -10 9 0 16 5 16 10 0 6 -4 10 -9 10 -6 0
-13 -4 -16 -10z"/>
<path d="M6707 3673 c-3 -5 1 -16 8 -26 9 -13 20 -15 43 -11 32 7 34 27 3 22
-10 -2 -25 3 -34 10 -8 7 -17 9 -20 5z"/>
<path d="M3410 3628 c-14 -24 -24 -46 -23 -49 1 -4 -7 -15 -17 -24 -28 -25
-25 -37 5 -23 14 6 24 17 21 23 -2 7 4 19 15 28 10 9 19 27 19 40 0 13 5 28
12 35 7 7 8 12 2 12 -6 0 -21 -19 -34 -42z"/>
<path d="M6630 3600 c-20 -15 -21 -18 -5 -23 34 -14 65 -8 65 12 0 26 -32 32
-60 11z"/>
<path d="M6542 3593 c5 -25 28 -28 28 -4 0 12 -6 21 -16 21 -9 0 -14 -7 -12
-17z"/>
<path d="M8950 3591 c0 -6 5 -13 10 -16 6 -3 10 1 10 9 0 9 -4 16 -10 16 -5 0
-10 -4 -10 -9z"/>
<path d="M9495 3580 c-4 -6 -3 -16 3 -22 6 -6 12 -6 17 2 4 6 3 16 -3 22 -6 6
-12 6 -17 -2z"/>
<path d="M2147 3563 c-3 -3 1 -12 9 -21 11 -10 18 -12 26 -4 7 7 4 13 -10 21
-10 6 -22 8 -25 4z"/>
<path d="M6565 3540 c-3 -5 -2 -10 4 -10 5 0 17 -3 25 -6 12 -5 15 -2 10 10
-7 18 -29 21 -39 6z"/>
<path d="M6650 3540 c0 -6 7 -10 15 -10 8 0 15 2 15 4 0 2 -7 6 -15 10 -8 3
-15 1 -15 -4z"/>
<path d="M9253 3543 c-29 -5 -30 -23 -2 -23 11 0 18 -4 15 -9 -12 -18 30 -41
62 -35 51 10 36 54 -20 59 -3 0 -10 3 -14 8 -4 4 -10 6 -13 6 -3 -1 -16 -4
-28 -6z"/>
<path d="M6365 3530 c-3 -5 -1 -10 5 -10 6 0 8 -4 5 -10 -3 -5 -2 -10 3 -10 8
0 22 22 22 36 0 8 -29 4 -35 -6z"/>
<path d="M9470 3505 c0 -8 5 -15 10 -15 6 0 10 7 10 15 0 8 -4 15 -10 15 -5 0
-10 -7 -10 -15z"/>
<path d="M6400 3480 c0 -5 5 -10 10 -10 6 0 10 5 10 10 0 6 -4 10 -10 10 -5 0
-10 -4 -10 -10z"/>
<path d="M6663 3473 c-7 -2 -13 -11 -13 -18 0 -16 38 -27 46 -13 3 5 12 7 20
4 7 -3 16 -1 19 4 4 6 -6 15 -20 20 -28 11 -33 11 -52 3z"/>
<path d="M3313 3463 c-7 -3 -13 -10 -13 -16 0 -6 -8 -19 -17 -29 -15 -17 -15
-19 3 -32 10 -8 21 -12 24 -9 3 3 -1 8 -7 10 -9 3 -6 13 8 33 22 29 23 50 2
43z"/>
<path d="M9540 3461 c0 -5 -8 -11 -17 -13 -13 -3 -10 -6 10 -10 22 -4 27 -2
27 13 0 11 -4 19 -10 19 -5 0 -10 -4 -10 -9z"/>
<path d="M6576 3452 c-3 -3 -6 -9 -6 -14 0 -11 37 -10 44 1 6 10 -30 22 -38
13z"/>
<path d="M6380 3419 c0 -9 27 -19 50 -19 10 0 20 -6 23 -12 2 -7 8 -10 12 -6
17 16 -14 43 -49 43 -20 0 -36 -3 -36 -6z"/>
<path d="M6532 3393 c2 -10 13 -19 25 -21 12 -2 29 -15 38 -29 17 -25 17 -26
-1 -18 -11 4 -28 10 -39 13 -17 4 -16 2 5 -14 66 -52 113 -68 80 -29 -11 13
-10 15 8 13 31 -4 31 15 -1 30 -15 7 -33 22 -40 33 -6 10 -20 19 -29 19 -10 0
-18 5 -18 10 0 6 -7 10 -16 10 -9 0 -14 -7 -12 -17z"/>
<path d="M9437 3368 c-33 -35 -25 -51 23 -46 40 4 60 30 44 56 -17 26 -36 24
-67 -10z"/>
<path d="M6367 3383 c-12 -11 -8 -23 8 -23 8 0 15 7 15 15 0 16 -12 20 -23 8z"/>
<path d="M6410 3380 c0 -5 5 -10 10 -10 6 0 10 5 10 10 0 6 -4 10 -10 10 -5 0
-10 -4 -10 -10z"/>
<path d="M9043 3374 c-8 -22 5 -30 23 -12 14 14 14 16 -1 21 -9 4 -18 1 -22
-9z"/>
<path d="M9225 3360 c3 -5 13 -10 21 -10 8 0 12 5 9 10 -3 6 -13 10 -21 10 -8
0 -12 -4 -9 -10z"/>
<path d="M9292 3353 c6 -7 23 -13 39 -13 16 0 29 -4 29 -10 0 -5 4 -10 9 -10
4 0 6 11 3 25 -4 22 -9 24 -48 23 -34 -2 -41 -5 -32 -15z"/>
<path d="M9290 3310 c0 -5 5 -10 10 -10 6 0 10 5 10 10 0 6 -4 10 -10 10 -5 0
-10 -4 -10 -10z"/>
<path d="M6425 3286 c11 -8 23 -12 27 -10 5 3 8 0 8 -7 0 -7 3 -9 6 -6 11 11
-17 37 -39 37 -20 0 -20 0 -2 -14z"/>
<path d="M6380 3276 c0 -9 0 -19 -1 -23 0 -4 4 -9 10 -11 14 -5 14 35 1 43 -5
3 -10 -1 -10 -9z"/>
<path d="M9365 3280 c3 -5 12 -10 20 -10 8 0 17 5 20 10 4 6 -5 10 -20 10 -15
0 -24 -4 -20 -10z"/>
<path d="M9555 3260 c-3 -5 -1 -10 4 -10 6 0 11 5 11 10 0 6 -2 10 -4 10 -3 0
-8 -4 -11 -10z"/>
<path d="M9090 3250 c0 -6 7 -10 15 -10 8 0 15 2 15 4 0 2 -7 6 -15 10 -8 3
-15 1 -15 -4z"/>
<path d="M9475 3250 c3 -5 8 -10 11 -10 2 0 4 5 4 10 0 6 -5 10 -11 10 -5 0
-7 -4 -4 -10z"/>
<path d="M9515 3250 c3 -5 8 -10 11 -10 2 0 4 5 4 10 0 6 -5 10 -11 10 -5 0
-7 -4 -4 -10z"/>
<path d="M6640 3240 c0 -5 7 -10 15 -10 8 0 15 5 15 10 0 6 -7 10 -15 10 -8 0
-15 -4 -15 -10z"/>
<path d="M9320 3240 c0 -5 5 -10 10 -10 6 0 10 5 10 10 0 6 -4 10 -10 10 -5 0
-10 -4 -10 -10z"/>
<path d="M9411 3228 c1 -13 -2 -31 -6 -40 -10 -26 8 -22 40 8 26 24 26 26 9
39 -28 21 -44 18 -43 -7z"/>
<path d="M9546 3227 c3 -10 9 -15 12 -12 3 3 0 11 -7 18 -10 9 -11 8 -5 -6z"/>
<path d="M9110 3220 c0 -5 5 -10 10 -10 6 0 10 5 10 10 0 6 -4 10 -10 10 -5 0
-10 -4 -10 -10z"/>
<path d="M9487 3209 c-20 -12 -22 -35 -3 -42 15 -6 36 11 36 29 0 19 -13 24
-33 13z"/>
<path d="M9300 3201 c0 -5 9 -11 20 -14 24 -6 27 8 4 17 -21 8 -24 8 -24 -3z"/>
<path d="M9167 3183 c5 -14 1 -15 -26 -10 -23 5 -37 2 -48 -9 -9 -8 -22 -13
-30 -10 -9 4 -17 -1 -20 -13 -3 -11 -13 -21 -24 -24 -25 -7 -24 -27 1 -27 11
0 20 3 20 8 0 10 53 33 91 39 39 6 77 42 58 54 -21 13 -29 11 -22 -8z"/>
<path d="M9310 3150 c0 -5 7 -10 16 -10 8 0 12 5 9 10 -3 6 -10 10 -16 10 -5
0 -9 -4 -9 -10z"/>
<path d="M9530 3150 c0 -5 5 -10 10 -10 6 0 10 5 10 10 0 6 -4 10 -10 10 -5 0
-10 -4 -10 -10z"/>
<path d="M9565 3150 c3 -5 10 -10 16 -10 5 0 9 5 9 10 0 6 -7 10 -16 10 -8 0
-12 -4 -9 -10z"/>
<path d="M6460 3140 c0 -5 7 -10 15 -10 8 0 15 5 15 10 0 6 -7 10 -15 10 -8 0
-15 -4 -15 -10z"/>
<path d="M9365 3130 c-3 -5 -1 -10 4 -10 6 0 11 5 11 10 0 6 -2 10 -4 10 -3 0
-8 -4 -11 -10z"/>
<path d="M6460 3116 c0 -2 8 -10 18 -17 15 -13 16 -12 3 4 -13 16 -21 21 -21
13z"/>
<path d="M3595 3100 c-3 -5 -1 -10 4 -10 6 0 11 5 11 10 0 6 -2 10 -4 10 -3 0
-8 -4 -11 -10z"/>
<path d="M9527 3103 c-4 -6 -1 -13 5 -16 7 -2 10 -8 6 -12 -6 -7 -29 -10 -103
-15 l-30 -2 30 -10 c22 -8 30 -8 33 1 3 8 8 9 17 1 16 -13 75 -1 75 15 0 8 6
16 13 18 6 3 2 6 -10 6 -12 1 -23 6 -25 13 -3 9 -6 9 -11 1z"/>
<path d="M6396 3091 c-3 -5 1 -12 10 -15 20 -8 29 -1 19 13 -8 13 -22 14 -29
2z"/>
<path d="M6635 3090 c4 -6 11 -8 16 -5 14 9 11 15 -7 15 -8 0 -12 -5 -9 -10z"/>
<path d="M9170 3074 c0 -14 48 -50 61 -46 41 11 42 12 29 27 -7 9 -21 13 -31
10 -9 -3 -20 -1 -24 5 -7 11 -35 14 -35 4z"/>
<path d="M9280 3062 c0 -5 17 -14 37 -20 30 -9 40 -9 51 2 12 11 9 15 -14 20
-18 5 -30 3 -35 -6 -7 -10 -9 -10 -9 0 0 6 -7 12 -15 12 -8 0 -15 -4 -15 -8z"/>
<path d="M9050 3050 c0 -5 5 -10 10 -10 6 0 10 5 10 10 0 6 -4 10 -10 10 -5 0
-10 -4 -10 -10z"/>
<path d="M9096 3025 c-11 -8 -16 -18 -11 -22 4 -5 10 -2 12 5 3 6 11 12 19 12
8 0 14 5 14 10 0 14 -11 12 -34 -5z"/>
<path d="M8930 3011 c0 -5 5 -13 10 -16 6 -3 10 -2 10 4 0 5 -4 13 -10 16 -5
3 -10 2 -10 -4z"/>
<path d="M9020 3005 c7 -8 16 -12 21 -9 13 8 1 24 -18 24 -13 0 -13 -3 -3 -15z"/>
<path d="M9135 3000 c-3 -5 -2 -10 4 -10 5 0 13 5 16 10 3 6 2 10 -4 10 -5 0
-13 -4 -16 -10z"/>
<path d="M9480 3000 c0 -5 5 -10 10 -10 6 0 10 5 10 10 0 6 -4 10 -10 10 -5 0
-10 -4 -10 -10z"/>
<path d="M9345 2980 c4 -6 11 -8 16 -5 14 9 11 15 -7 15 -8 0 -12 -5 -9 -10z"/>
<path d="M9440 2980 c0 -5 7 -10 15 -10 8 0 15 5 15 10 0 6 -7 10 -15 10 -8 0
-15 -4 -15 -10z"/>
<path d="M9110 2970 c0 -5 5 -10 11 -10 5 0 7 5 4 10 -3 6 -8 10 -11 10 -2 0
-4 -4 -4 -10z"/>
<path d="M9390 2950 c19 -13 30 -13 30 0 0 6 -10 10 -22 10 -19 0 -20 -2 -8
-10z"/>
<path d="M9020 2930 c0 -5 5 -10 10 -10 6 0 10 5 10 10 0 6 -4 10 -10 10 -5 0
-10 -4 -10 -10z"/>
<path d="M9135 2930 c-7 -12 2 -12 30 0 19 8 19 9 -2 9 -12 1 -25 -3 -28 -9z"/>
<path d="M9212 2928 c-19 -19 -14 -27 23 -34 39 -7 98 12 92 30 -5 16 -99 20
-115 4z"/>
<path d="M9340 2920 c0 -5 5 -10 10 -10 6 0 10 5 10 10 0 6 -4 10 -10 10 -5 0
-10 -4 -10 -10z"/>
<path d="M9470 2915 c0 -8 7 -15 15 -15 8 0 15 4 15 9 0 5 -7 11 -15 15 -9 3
-15 0 -15 -9z"/>
<path d="M9072 2904 c-11 -12 -10 -15 5 -21 10 -4 21 -11 24 -15 3 -5 6 5 7
21 1 33 -15 40 -36 15z"/>
<path d="M9375 2910 c3 -5 17 -10 31 -10 13 0 24 5 24 10 0 6 -14 10 -31 10
-17 0 -28 -4 -24 -10z"/>
<path d="M8982 2903 c-10 -4 -8 -9 7 -20 15 -10 26 -11 38 -4 17 10 17 10 1
11 -10 0 -18 5 -18 10 0 11 -7 12 -28 3z"/>
<path d="M9460 2880 c0 -5 7 -10 15 -10 8 0 15 5 15 10 0 6 -7 10 -15 10 -8 0
-15 -4 -15 -10z"/>
<path d="M9580 2876 c0 -8 5 -18 10 -21 6 -3 10 3 10 14 0 12 -4 21 -10 21 -5
0 -10 -6 -10 -14z"/>
<path d="M9360 2855 c-7 -8 -19 -15 -26 -15 -17 0 -18 -16 -1 -23 6 -2 26 9
42 24 22 21 26 29 14 29 -9 0 -22 -7 -29 -15z"/>
<path d="M9060 2830 c0 -5 5 -10 10 -10 6 0 10 5 10 10 0 6 -4 10 -10 10 -5 0
-10 -4 -10 -10z"/>
<path d="M9117 2833 c-3 -5 6 -16 18 -26 15 -10 26 -13 30 -7 3 5 15 10 26 10
10 0 19 5 19 11 0 7 -10 9 -25 7 -14 -3 -28 -1 -31 3 -6 11 -31 12 -37 2z"/>
<path d="M9408 2833 c-31 -8 -19 -18 21 -18 31 0 37 2 29 12 -11 13 -19 14
-50 6z"/>
<path d="M8975 2799 c-10 -15 3 -25 16 -12 7 7 7 13 1 17 -6 3 -14 1 -17 -5z"/>
<path d="M9056 2801 c-15 -6 -16 -10 -7 -15 8 -5 20 -2 29 8 17 17 9 19 -22 7z"/>
<path d="M9230 2799 c0 -5 7 -10 15 -10 55 -5 72 -3 68 7 -5 13 -83 15 -83 3z"/>
<path d="M9360 2799 c0 -5 5 -7 10 -4 6 3 10 8 10 11 0 2 -4 4 -10 4 -5 0 -10
-5 -10 -11z"/>
<path d="M9500 2800 c0 -5 7 -10 15 -10 8 0 15 5 15 10 0 6 -7 10 -15 10 -8 0
-15 -4 -15 -10z"/>
<path d="M9086 2773 c-13 -13 -5 -23 20 -23 21 0 25 -4 21 -19 -3 -14 0 -17
14 -14 11 3 19 8 19 12 0 10 -67 50 -74 44z"/>
<path d="M9455 2760 c3 -5 16 -10 28 -9 21 0 21 1 2 9 -28 12 -37 12 -30 0z"/>
<path d="M9015 2750 c3 -5 15 -10 26 -10 11 0 17 5 14 10 -3 6 -15 10 -26 10
-11 0 -17 -4 -14 -10z"/>
<path d="M9422 2738 c3 -7 12 -14 21 -16 12 -2 15 1 11 12 -7 19 -38 22 -32 4z"/>
<path d="M3414 2695 c-10 -8 -14 -14 -9 -14 6 0 19 6 29 14 11 8 15 15 10 15
-6 0 -19 -7 -30 -15z"/>
<path d="M8993 2669 c-36 -15 -43 -16 -43 -4 0 8 -4 15 -9 15 -5 0 -8 -11 -8
-25 0 -25 20 -34 32 -14 4 6 13 8 20 5 15 -5 75 15 75 25 0 16 -28 15 -67 -2z"/>
<path d="M9130 2664 c0 -8 5 -12 10 -9 6 4 8 11 5 16 -9 14 -15 11 -15 -7z"/>
<path d="M9195 2671 c-3 -5 -1 -12 5 -16 5 -3 10 1 10 9 0 18 -6 21 -15 7z"/>
<path d="M9086 2654 c-3 -8 -10 -13 -15 -9 -5 3 -12 1 -15 -4 -4 -5 -2 -12 3
-16 10 -6 51 24 51 37 0 14 -18 8 -24 -8z"/>
<path d="M3320 2650 c-27 -17 -1 -23 32 -7 31 16 31 17 8 17 -14 0 -32 -4 -40
-10z"/>
<path d="M9350 2640 c0 -21 16 -26 39 -11 18 11 5 31 -20 31 -12 0 -19 -7 -19
-20z"/>
<path d="M3750 2630 c-12 -8 -9 -10 13 -10 15 0 27 5 27 10 0 13 -20 13 -40 0z"/>
<path d="M9148 2633 c-10 -2 -18 -9 -18 -14 0 -13 12 -11 34 6 20 15 16 17
-16 8z"/>
<path d="M9010 2620 c0 -5 7 -10 15 -10 8 0 15 5 15 10 0 6 -7 10 -15 10 -8 0
-15 -4 -15 -10z"/>
<path d="M9246 2614 c-11 -7 -18 -16 -15 -18 2 -2 13 2 23 10 11 7 18 16 15
18 -2 2 -13 -2 -23 -10z"/>
<path d="M8950 2605 c0 -9 9 -15 21 -15 18 0 19 2 9 15 -7 8 -16 15 -21 15 -5
0 -9 -7 -9 -15z"/>
<path d="M9145 2590 c-3 -5 3 -10 15 -10 12 0 18 5 15 10 -3 6 -10 10 -15 10
-5 0 -12 -4 -15 -10z"/>
<path d="M9086 2581 c-5 -8 34 -41 49 -41 14 0 3 30 -14 40 -24 12 -28 12 -35
1z"/>
<path d="M8935 2570 c-3 -5 -1 -10 4 -10 6 0 11 5 11 10 0 6 -2 10 -4 10 -3 0
-8 -4 -11 -10z"/>
<path d="M8994 2568 c-3 -5 0 -8 5 -8 6 0 11 -7 11 -15 0 -9 9 -15 24 -15 14
0 28 -4 31 -10 8 -13 25 -13 25 1 0 6 -9 13 -20 16 -11 3 -20 14 -20 24 0 14
-6 18 -26 17 -14 -2 -28 -6 -30 -10z"/>
<path d="M8910 2530 c0 -5 7 -10 16 -10 8 0 12 5 9 10 -3 6 -10 10 -16 10 -5
0 -9 -4 -9 -10z"/>
<path d="M8925 2490 c3 -5 8 -10 11 -10 2 0 4 5 4 10 0 6 -5 10 -11 10 -5 0
-7 -4 -4 -10z"/>
<path d="M9016 2486 c3 -9 11 -16 16 -16 13 0 5 23 -10 28 -7 2 -10 -2 -6 -12z"/>
<path d="M4766 2130 c-3 -14 -5 -46 -4 -72 3 -41 6 -48 24 -48 19 0 20 4 13
54 -4 30 -12 62 -17 72 -10 17 -11 17 -16 -6z"/>
<path d="M4633 2035 c-9 -20 -8 -25 3 -25 8 0 14 10 14 25 0 31 -2 31 -17 0z"/>
<path d="M4583 2033 c-18 -7 -16 -23 2 -23 8 0 15 7 15 15 0 8 -1 15 -2 14 -2
0 -9 -3 -15 -6z"/>
<path d="M4830 2019 c0 -5 5 -7 10 -4 6 3 10 8 10 11 0 2 -4 4 -10 4 -5 0 -10
-5 -10 -11z"/>
<path d="M4175 1470 c-3 -5 -1 -10 4 -10 6 0 11 5 11 10 0 6 -2 10 -4 10 -3 0
-8 -4 -11 -10z"/>
<path d="M4270 1310 l0 -150 40 0 40 0 0 150 0 150 -40 0 -40 0 0 -150z"/>
<path d="M4480 1440 c0 -18 7 -20 60 -20 66 0 68 -3 49 -61 -17 -49 -48 -79
-81 -79 -23 0 -28 -4 -28 -25 0 -22 4 -25 39 -25 76 0 105 43 126 188 l7 42
-86 0 c-79 0 -86 -2 -86 -20z"/>
<path d="M4690 1310 c0 -143 1 -150 20 -150 19 0 20 7 20 150 0 143 -1 150
-20 150 -19 0 -20 -7 -20 -150z"/>
<path d="M4862 1348 l3 -113 78 -3 77 -3 0 116 0 115 -80 0 -81 0 3 -112z
m118 2 l0 -70 -40 0 -40 0 0 70 0 70 40 0 40 0 0 -70z"/>
<path d="M5067 1453 c-4 -3 -7 -71 -7 -150 l0 -143 25 0 25 0 0 130 c0 80 4
130 10 130 6 0 10 9 10 20 0 15 -7 20 -28 20 -16 0 -32 -3 -35 -7z"/>
<path d="M5230 1387 c0 -43 5 -78 12 -85 7 -7 39 -12 73 -12 66 0 85 11 85 47
0 16 6 23 20 23 16 0 20 -7 20 -35 0 -28 4 -35 20 -35 18 0 20 7 20 85 0 78
-2 85 -20 85 -16 0 -20 -7 -20 -30 0 -23 -4 -30 -20 -30 -16 0 -20 7 -20 30 0
23 -4 30 -20 30 -13 0 -20 -7 -20 -20 0 -17 -7 -20 -40 -20 -33 0 -40 3 -40
20 0 15 -7 20 -25 20 -24 0 -25 -2 -25 -73z m130 -32 c0 -11 -11 -15 -40 -15
-29 0 -40 4 -40 15 0 11 11 15 40 15 29 0 40 -4 40 -15z"/>
<path d="M5670 1385 c0 -62 -4 -79 -20 -95 -11 -11 -24 -20 -30 -20 -5 0 -10
-9 -10 -20 0 -26 41 -27 64 -1 17 19 18 19 37 0 23 -23 59 -25 59 -4 0 9 -12
27 -27 39 -25 21 -28 32 -31 100 -4 67 -7 76 -23 76 -17 0 -19 -8 -19 -75z"/>
<path d="M5820 1310 c0 -143 1 -150 20 -150 19 0 20 7 20 130 0 80 4 130 10
130 6 0 10 9 10 20 0 16 -7 20 -30 20 l-30 0 0 -150z"/>
<path d="M6350 1256 c0 -184 1 -188 26 -232 14 -24 37 -53 50 -63 13 -10 24
-24 24 -30 0 -6 5 -11 11 -11 7 0 9 -11 6 -29 -6 -27 -3 -29 28 -35 39 -8 47
-31 14 -41 -29 -10 -10 -21 39 -24 9 -1 11 -8 7 -21 -4 -13 -1 -22 10 -26 14
-6 14 -8 -2 -20 -16 -12 -15 -14 15 -20 24 -5 31 -11 27 -22 -3 -8 3 -20 12
-28 15 -11 16 -16 5 -33 -13 -22 -6 -27 17 -12 10 7 11 13 2 30 -8 14 -8 21
-1 21 5 0 10 -5 10 -11 0 -5 5 -7 10 -4 6 4 7 11 4 17 -3 5 -7 33 -8 61 -4 79
-18 181 -27 192 -4 6 -10 22 -13 35 -22 102 -79 236 -138 322 -31 44 -109 151
-119 163 -5 5 -9 -74 -9 -179z"/>
<path d="M7620 1290 c0 -5 14 -10 32 -10 36 0 35 4 -4 14 -17 4 -28 2 -28 -4z"/>
<path d="M5240 1240 c0 -81 -1 -80 126 -80 l114 0 0 58 0 57 -120 0 -120 0 0
-35z m200 -30 c0 -6 -32 -10 -75 -10 -43 0 -75 4 -75 10 0 6 32 10 75 10 43 0
75 -4 75 -10z"/>
<path d="M8172 1043 c-13 -3 -26 -11 -29 -19 -3 -8 -11 -14 -19 -14 -25 0 -93
-71 -118 -123 -44 -89 -40 -156 11 -224 23 -32 23 -33 4 -33 -11 0 -23 5 -26
10 -3 6 -19 10 -35 10 -16 0 -32 -4 -35 -10 -3 -5 0 -10 7 -10 8 0 31 -9 53
-20 22 -11 43 -20 47 -20 4 0 18 -10 31 -22 13 -13 43 -40 66 -62 22 -21 41
-47 41 -57 0 -11 5 -19 11 -19 5 0 8 -4 4 -9 -3 -5 6 -18 20 -29 30 -24 31
-28 5 -35 -28 -7 -25 -27 5 -27 39 0 30 -28 -15 -47 -26 -12 -40 -24 -40 -37
0 -14 5 -17 21 -13 23 6 49 -13 49 -34 0 -10 -3 -10 -12 -1 -14 14 -74 16 -83
2 -3 -5 0 -7 8 -4 8 3 17 -2 21 -12 12 -32 -10 -34 -44 -4 -23 21 -29 30 -17
30 11 0 14 5 10 16 -5 13 -2 15 14 10 17 -6 20 -3 15 19 -3 16 -11 25 -23 25
-22 0 -24 11 -7 28 9 9 5 12 -20 12 -33 0 -43 -16 -17 -26 18 -7 20 -54 3 -54
-7 0 -19 4 -27 9 -11 7 -10 11 5 20 16 9 13 10 -19 11 -24 0 -45 -7 -59 -20
-25 -23 -38 -25 -38 -7 0 8 12 20 28 27 15 7 22 15 15 17 -7 2 -21 0 -32 -6
-11 -6 -36 -11 -55 -11 -30 0 -37 -4 -42 -25 -3 -14 -10 -25 -16 -25 -5 0 -7
8 -4 18 3 9 1 24 -4 32 -7 12 -10 8 -10 -14 l0 -29 -25 27 c-16 17 -34 26 -54
26 -18 0 -34 7 -40 18 -8 13 -14 15 -28 6 -14 -9 -23 -5 -49 21 -17 18 -37 35
-45 37 -11 4 -11 8 -2 18 13 14 6 40 -16 57 -13 10 -14 15 -3 32 7 13 8 21 2
21 -5 0 -10 -4 -10 -10 0 -5 -7 -10 -15 -10 -18 0 -20 -27 -2 -33 6 -2 9 -8 5
-12 -4 -4 -14 0 -23 9 -21 21 -20 21 -59 -18 -37 -36 -76 -52 -76 -31 0 7 7
18 15 25 24 20 18 38 -15 45 -34 7 -54 -1 -46 -20 3 -8 -2 -19 -10 -26 -10 -8
-14 -25 -12 -46 2 -18 0 -33 -4 -33 -5 0 -13 -12 -19 -27 -5 -16 -12 -35 -16
-43 -3 -8 -5 -21 -4 -27 1 -7 -3 -13 -9 -13 -7 0 -9 -8 -5 -19 3 -11 -1 -26
-12 -36 -9 -10 -17 -32 -17 -51 0 -23 -5 -34 -18 -37 -10 -3 -18 -13 -18 -22
0 -9 -4 -14 -8 -11 -5 3 -6 -8 -4 -25 l4 -29 1210 0 1209 0 -3 42 c-3 40 -5
43 -38 49 l-35 6 40 2 40 2 -40 18 c-45 20 -55 19 -49 -7 5 -16 -5 -17 -128
-13 -85 2 -136 7 -140 15 -5 7 -8 7 -8 -3 0 -8 -3 -12 -6 -8 -3 3 -1 28 5 56
11 51 2 123 -20 161 -5 8 -15 30 -23 48 -8 18 -23 35 -33 39 -10 3 -29 17 -42
30 -13 13 -28 23 -32 23 -14 0 -10 -17 8 -35 13 -14 14 -18 2 -25 -7 -5 -10
-12 -6 -17 5 -4 12 -1 17 7 5 8 12 12 15 9 9 -10 -6 -39 -26 -50 -15 -8 -19
-6 -19 7 0 10 -3 14 -6 11 -13 -13 -64 34 -64 59 0 14 -11 35 -25 48 -14 13
-25 28 -25 35 0 6 -9 11 -19 11 -25 0 -71 42 -71 64 0 9 -10 20 -23 25 -24 9
-86 68 -145 138 -18 21 -51 50 -73 63 -21 14 -39 29 -39 34 0 5 -32 39 -71 75
-60 56 -81 68 -133 82 -33 8 -78 23 -98 32 -36 16 -68 19 -116 10z m-677 -623
c-8 -13 38 -20 52 -8 8 6 16 8 19 5 9 -8 -18 -33 -44 -41 -12 -4 -22 -12 -22
-17 0 -5 -7 -9 -15 -9 -18 0 -20 20 -2 20 7 0 3 8 -8 16 -14 11 -16 18 -7 21
6 3 12 11 12 19 0 9 5 12 10 9 6 -4 8 -10 5 -15z m86 -70 c10 -6 19 -19 19
-30 0 -15 -6 -19 -25 -18 -16 2 -24 7 -20 16 2 7 -2 15 -10 18 -16 6 -11 24 6
24 6 0 19 -5 30 -10z m-96 -30 c3 -5 1 -10 -4 -10 -6 0 -11 5 -11 10 0 6 2 10
4 10 3 0 8 -4 11 -10z m1585 -10 c0 -5 -5 -10 -11 -10 -5 0 -7 5 -4 10 3 6 8
10 11 10 2 0 4 -4 4 -10z m-794 -65 c-7 -20 -52 -19 -60 0 -4 10 3 20 19 27
14 6 25 18 26 27 0 9 5 3 11 -12 5 -15 7 -34 4 -42z m-646 20 c0 -14 -4 -25
-10 -25 -5 0 -10 4 -10 9 0 5 -3 16 -6 25 -4 11 -1 16 10 16 10 0 16 -9 16
-25z m130 -35 c12 -8 11 -10 -5 -10 -12 0 -26 -5 -32 -11 -12 -12 -33 -4 -33
11 0 5 10 11 23 13 12 2 24 5 27 5 3 1 12 -3 20 -8z m267 -6 c-3 -3 -12 -4
-19 -1 -8 3 -5 6 6 6 11 1 17 -2 13 -5z m41 -44 c0 -16 -6 -34 -14 -41 -12
-10 -13 -7 -8 20 5 25 3 31 -10 31 -14 0 -15 2 -4 14 19 20 35 9 36 -24z
m-268 20 c0 -5 -4 -10 -10 -10 -5 0 -10 5 -10 10 0 6 5 10 10 10 6 0 10 -4 10
-10z m484 -8 c16 -18 15 -19 -14 -20 -32 -1 -37 7 -18 26 15 15 12 15 32 -6z
m-49 -32 c-4 -7 2 -9 19 -4 20 5 26 2 26 -10 0 -23 -26 -31 -56 -18 -29 14
-32 42 -3 42 11 0 17 -4 14 -10z m-68 -30 c13 0 13 -2 2 -16 -8 -10 -15 -12
-17 -5 -5 14 -32 15 -32 1 0 -5 -5 -10 -10 -10 -7 0 -7 7 0 21 7 12 17 18 27
15 8 -3 22 -6 30 -6z m-153 -16 c4 -11 1 -14 -11 -12 -9 2 -18 9 -21 16 -6 18
25 15 32 -4z m296 -24 c0 -5 -5 -10 -11 -10 -5 0 -7 5 -4 10 3 6 8 10 11 10 2
0 4 -4 4 -10z m75 -30 c3 -5 -1 -10 -10 -10 -9 0 -13 5 -10 10 3 6 8 10 10 10
2 0 7 -4 10 -10z"/>
<path d="M7706 761 c-8 -12 32 -31 64 -31 18 0 37 17 28 25 -11 11 -86 16 -92
6z"/>
<path d="M50 621 c0 -28 27 -38 48 -18 19 19 16 23 -21 32 -23 6 -27 4 -27
-14z"/>
<path d="M7372 564 c2 -11 11 -20 22 -22 13 -3 17 1 14 14 -2 11 -11 20 -22
22 -13 3 -17 -1 -14 -14z"/>
<path d="M9080 557 c0 -9 11 -29 25 -44 22 -25 24 -26 25 -8 0 22 -7 34 -32
54 -16 12 -18 11 -18 -2z"/>
<path d="M100 542 c0 -19 12 -42 22 -42 14 0 5 43 -9 48 -7 2 -13 -1 -13 -6z"/>
<path d="M9235 530 c3 -5 8 -10 11 -10 2 0 4 5 4 10 0 6 -5 10 -11 10 -5 0 -7
-4 -4 -10z"/>
<path d="M160 521 c0 -6 5 -13 10 -16 6 -3 10 1 10 9 0 9 -4 16 -10 16 -5 0
-10 -4 -10 -9z"/>
<path d="M9500 489 c0 -5 8 -9 18 -9 10 0 22 -4 28 -10 5 -5 15 -6 21 -2 8 5
-2 12 -27 19 -22 5 -40 6 -40 2z"/>
<path d="M200 470 c-24 -8 -23 -8 8 -9 20 -1 31 3 27 9 -3 6 -7 10 -8 9 -1 -1
-13 -5 -27 -9z"/>
<path d="M3515 471 c-3 -5 -1 -12 5 -16 5 -3 10 1 10 9 0 18 -6 21 -15 7z"/>
<path d="M9445 470 c-3 -5 -2 -10 4 -10 5 0 13 5 16 10 3 6 2 10 -4 10 -5 0
-13 -4 -16 -10z"/>
<path d="M9532 438 c5 -15 28 -23 28 -10 0 5 -7 13 -16 16 -10 4 -14 1 -12 -6z"/>
<path d="M7270 423 c0 -5 5 -15 10 -23 9 -13 11 -13 19 0 7 10 6 17 -2 22 -15
10 -27 10 -27 1z"/>
<path d="M7790 385 c0 -10 10 -15 31 -15 27 0 30 2 19 15 -7 8 -21 15 -31 15
-11 0 -19 -7 -19 -15z"/>
<path d="M3450 386 c0 -2 7 -7 16 -10 8 -3 12 -2 9 4 -6 10 -25 14 -25 6z"/>
<path d="M3490 360 c0 -5 7 -10 15 -10 8 0 15 5 15 10 0 6 -7 10 -15 10 -8 0
-15 -4 -15 -10z"/>
<path d="M7960 351 c0 -5 5 -13 10 -16 6 -3 10 -2 10 4 0 5 -4 13 -10 16 -5 3
-10 2 -10 -4z"/>
<path d="M8160 345 c0 -8 4 -15 8 -15 5 0 9 7 9 15 0 8 -4 15 -9 15 -4 0 -8
-7 -8 -15z"/>
<path d="M4407 313 c-4 -3 0 -17 8 -30 9 -13 13 -28 10 -33 -3 -5 5 -22 19
-37 15 -15 26 -38 26 -50 0 -13 8 -24 20 -28 24 -7 26 -37 5 -59 -15 -14 -20
-36 -9 -36 3 0 14 5 25 10 13 7 19 7 19 0 0 -5 -4 -10 -10 -10 -5 0 -10 -9
-10 -20 0 -19 7 -20 210 -20 128 0 210 4 210 10 0 11 -40 50 -51 50 -4 0 -11
-4 -14 -10 -13 -22 -27 -9 -22 20 5 23 3 28 -8 23 -8 -3 -15 -13 -15 -23 0
-15 -6 -18 -27 -14 -29 5 -52 30 -53 55 0 21 -18 28 -52 22 -20 -4 -29 1 -39
19 -7 12 -13 30 -14 38 0 9 -7 14 -20 12 -34 -7 -37 -26 -5 -41 17 -8 30 -20
30 -27 0 -7 9 -15 19 -19 11 -3 22 -13 25 -22 8 -19 8 -18 -21 -27 -19 -6 -22
-4 -16 10 5 13 3 16 -9 11 -10 -3 -26 3 -40 15 -20 17 -23 18 -26 4 -2 -9 -7
-16 -12 -16 -14 0 -20 28 -7 34 7 3 3 4 -8 1 -18 -4 -21 0 -23 42 -1 36 1 44
10 35 18 -18 25 -15 30 13 5 26 -1 32 -18 15 -12 -12 -74 15 -74 31 0 5 -11
14 -25 21 -29 13 -24 29 7 20 14 -3 19 -2 14 6 -8 13 -48 16 -59 5z m310 -207
c-3 -8 1 -20 9 -26 8 -7 14 -19 14 -28 0 -12 -4 -11 -20 6 -21 23 -27 62 -9
62 6 0 9 -6 6 -14z m-22 -56 c3 -5 1 -10 -4 -10 -6 0 -11 5 -11 10 0 6 2 10 4
10 3 0 8 -4 11 -10z"/>
<path d="M7998 313 c6 -2 18 -2 25 0 6 3 1 5 -13 5 -14 0 -19 -2 -12 -5z"/>
<path d="M7880 300 c0 -5 5 -10 10 -10 6 0 10 5 10 10 0 6 -4 10 -10 10 -5 0
-10 -4 -10 -10z"/>
<path d="M9350 300 c8 -5 20 -10 25 -10 6 0 3 5 -5 10 -8 5 -19 10 -25 10 -5
0 -3 -5 5 -10z"/>
<path d="M3475 280 c-3 -5 -1 -10 4 -10 6 0 11 5 11 10 0 6 -2 10 -4 10 -3 0
-8 -4 -11 -10z"/>
<path d="M3540 270 c0 -5 5 -10 10 -10 6 0 10 5 10 10 0 6 -4 10 -10 10 -5 0
-10 -4 -10 -10z"/>
<path d="M9460 270 c0 -5 15 -10 34 -10 19 0 38 5 41 10 4 6 -10 10 -34 10
-23 0 -41 -4 -41 -10z"/>
<path d="M4727 234 c-4 -4 4 -15 19 -24 14 -10 25 -20 24 -24 -2 -12 28 -36
44 -36 9 0 16 8 16 20 0 12 -5 17 -14 14 -8 -3 -24 3 -35 13 -20 16 -20 18 -4
25 12 6 9 7 -9 3 -14 -3 -28 0 -30 6 -2 5 -7 7 -11 3z"/>
<path d="M3283 223 c9 -2 23 -2 30 0 6 3 -1 5 -18 5 -16 0 -22 -2 -12 -5z"/>
<path d="M3406 222 c-2 -4 7 -12 20 -19 26 -12 32 -5 12 15 -14 14 -25 15 -32
4z"/>
<path d="M9325 200 c3 -5 8 -10 11 -10 2 0 4 5 4 10 0 6 -5 10 -11 10 -5 0 -7
-4 -4 -10z"/>
<path d="M3303 175 c-8 -22 6 -33 17 -15 13 20 12 30 0 30 -6 0 -13 -7 -17
-15z"/>
<path d="M3379 171 c11 -7 9 -10 -8 -16 -24 -7 -28 -25 -5 -25 8 0 12 -4 9
-10 -9 -15 58 -12 86 3 26 14 36 37 17 37 -16 0 -47 -19 -33 -21 13 -1 -26
-17 -44 -18 -11 -1 -11 2 -1 14 7 8 16 12 21 9 5 -3 9 -1 9 4 0 5 -11 14 -25
20 -30 14 -46 16 -26 3z"/>
<path d="M9310 150 c0 -5 17 -10 38 -9 30 0 33 2 17 9 -28 12 -55 12 -55 0z"/>
<path d="M3535 140 c3 -5 13 -10 21 -10 8 0 14 5 14 10 0 6 -9 10 -21 10 -11
0 -17 -4 -14 -10z"/>
<path d="M4924 134 c3 -9 6 -18 6 -20 0 -2 6 -4 14 -4 26 0 25 15 -1 27 -21
10 -24 10 -19 -3z"/>
<path d="M4947 63 c-10 -9 -9 -23 2 -23 5 0 11 7 15 15 5 15 -5 20 -17 8z"/>
<path d="M3502 43 c-6 -2 -10 -9 -6 -14 3 -5 0 -9 -5 -9 -6 0 -11 -4 -11 -10
0 -5 21 -10 47 -10 l46 0 -23 25 c-24 26 -27 27 -48 18z"/>
<path d="M3606 25 c-11 -8 -15 -15 -9 -15 6 0 16 7 23 15 16 19 11 19 -14 0z"/>
<path d="M4967 20 c-4 -17 0 -20 24 -20 16 0 29 5 29 11 0 6 -9 8 -20 4 -15
-5 -18 -3 -14 9 3 9 2 16 -4 16 -5 0 -12 -9 -15 -20z"/>
<path d="M4480 20 c0 -5 5 -10 10 -10 6 0 10 5 10 10 0 6 -4 10 -10 10 -5 0
-10 -4 -10 -10z"/>
<path d="M5118 3 c7 -3 16 -2 19 1 4 3 -2 6 -13 5 -11 0 -14 -3 -6 -6z"/>
</g>
</svg>
