<?xml version="1.0" standalone="no"?>
<!DOCTYPE svg PUBLIC "-//W3C//DTD SVG 20010904//EN"
 "http://www.w3.org/TR/2001/REC-SVG-20010904/DTD/svg10.dtd">
<svg version="1.0" xmlns="http://www.w3.org/2000/svg"
 width="204.000000pt" height="118.000000pt" viewBox="0 0 204.000000 118.000000"
 preserveAspectRatio="xMidYMid meet">

<g transform="translate(0.000000,118.000000) scale(0.100000,-0.100000)"
fill="#000000" stroke="none">
<path d="M0 590 l0 -590 1020 0 1020 0 0 590 0 590 -1020 0 -1020 0 0 -590z
m1153 440 c74 -35 142 -102 179 -178 29 -59 33 -76 33 -147 -1 -65 -5 -90 -27
-135 -14 -30 -33 -64 -42 -75 -14 -19 -15 -15 -16 58 l0 77 -90 0 -90 0 0 75
c0 73 -1 75 -25 75 -20 0 -25 -5 -25 -25 0 -24 -3 -25 -55 -25 l-55 0 0 115 0
114 -87 3 -86 3 42 29 c101 70 242 85 344 36z m-373 -205 l0 -75 30 0 30 0 0
75 c0 73 1 75 25 75 l25 0 0 -165 0 -165 170 0 170 0 0 -74 0 -75 -67 -33
c-61 -30 -77 -33 -153 -33 -74 0 -93 4 -144 29 -182 89 -257 290 -174 469 19
42 25 47 55 47 l33 0 0 -75z m270 -170 c0 -24 -3 -25 -55 -25 -52 0 -55 1 -55
25 0 24 3 25 55 25 52 0 55 -1 55 -25z"/>
<path d="M892 508 c3 -39 6 -43 32 -46 36 -4 46 6 51 52 l3 36 -45 0 -44 0 3
-42z m58 2 c0 -13 -7 -20 -20 -20 -19 0 -27 20 -13 33 13 14 33 6 33 -13z"/>
<path d="M1006 511 c1 -20 3 -40 3 -44 1 -5 20 -7 44 -5 41 3 42 4 45 44 l3
40 -48 0 -48 0 1 -35z m64 -11 c0 -5 -9 -10 -20 -10 -11 0 -20 5 -20 10 0 6 9
10 20 10 11 0 20 -4 20 -10z"/>
<path d="M1150 536 c0 -8 -4 -16 -9 -18 -5 -1 -13 -15 -16 -30 -7 -28 -7 -28
44 -28 43 0 51 3 51 19 0 24 -37 71 -56 71 -8 0 -14 -6 -14 -14z m30 -36 c0
-5 -4 -10 -10 -10 -5 0 -10 5 -10 10 0 6 5 10 10 10 6 0 10 -4 10 -10z"/>
</g>
</svg>
